<svg width="291" height="376" viewBox="0 0 291 376" fill="none" xmlns="http://www.w3.org/2000/svg">
    <path fill-rule="evenodd" clip-rule="evenodd"
        d="M144.469 203.053C144.19 204.404 143.753 205.765 143.176 207.066C146.28 213.236 152.041 216.398 152.695 214.948C152.91 214.466 152.719 214.338 152.172 213.971C151.113 213.26 148.719 211.652 145.372 204.842C145.06 204.208 144.758 203.61 144.469 203.053ZM138.776 213.175C138.005 213.834 137.172 214.395 136.285 214.828C138.115 215.823 140.283 217.37 143.957 220.889C144.015 220.944 144.075 221.006 144.138 221.069C144.49 221.428 144.916 221.861 145.34 221.529C145.84 221.138 145.547 220.393 145.271 219.836C143.747 216.773 141.405 214.773 138.776 213.175ZM130.189 221.924C131.479 222.582 132.594 223.287 133.567 224.061C134.559 224.071 135.502 224.128 136.436 224.183C137.147 224.227 137.854 224.268 138.572 224.29C139.512 224.318 140.847 222.378 135.268 221.746C133.978 221.6 132.806 221.543 131.74 221.559C131.254 221.719 130.732 221.841 130.189 221.924ZM201.4 271.461C202.08 271.803 202.759 272.152 203.441 272.51C203.753 270.082 202.368 267.995 200.784 265.611L200.78 265.603C197.494 260.66 194.899 254.573 192.402 248.715C187.911 238.178 183.734 228.376 176.397 227.268C176.344 227.261 176.284 227.249 176.225 227.237C175.883 227.166 175.475 227.083 175.289 227.553C175.032 228.205 175.498 228.426 176.429 228.866C178.354 229.779 182.271 231.635 185.889 240.209C190.635 251.454 194.828 258.744 197.66 263.668V263.67C199.799 267.387 201.161 269.755 201.4 271.461ZM136.844 227.707C137.55 228.823 138.136 230.061 138.643 231.453C142.092 227.776 144.686 225.781 146.306 224.535C147.795 223.39 148.461 222.878 148.21 222.274C147.748 221.162 145.494 222.562 142.42 224.47C140.751 225.505 138.841 226.692 136.844 227.707ZM161.274 191.876C153.916 192.704 149.586 193.19 151.907 209.412C151.935 209.596 151.998 209.774 152.095 209.932C152.191 210.092 152.318 210.23 152.466 210.341C152.616 210.451 152.786 210.532 152.968 210.576C153.147 210.621 153.335 210.629 153.521 210.601C153.704 210.574 153.88 210.511 154.04 210.414C154.2 210.319 154.338 210.193 154.449 210.042C154.559 209.892 154.638 209.723 154.684 209.543C154.729 209.361 154.737 209.173 154.709 208.99C152.697 195.414 155.211 195.194 162.106 194.592C166.21 194.235 171.866 193.741 179.041 190.213C179.213 190.129 179.363 190.01 179.488 189.866C179.612 189.722 179.707 189.552 179.764 189.37C179.822 189.188 179.841 188.997 179.824 188.807C179.806 188.618 179.749 188.434 179.658 188.266C179.034 187.108 178.688 187.267 177.157 187.972C175.145 188.9 171.08 190.774 161.636 191.835L161.274 191.876ZM177.274 220.062C178.735 221.746 178.696 224.095 177.059 225.55C173.697 228.517 165.687 228.473 161.324 226.998C162.631 226.443 164.934 226.186 167.328 225.919C171.663 225.436 176.3 224.918 175.903 222.54C175.473 219.955 171.663 220.463 166.603 221.138C162.852 221.64 158.415 222.232 154.155 221.725C150.479 221.286 151.06 219.848 152.215 219.84C155.808 219.813 159.361 219.362 162.914 218.912C165.769 218.549 168.625 218.187 171.501 218.045C173.547 217.944 175.147 218.414 176.28 219.187C176.377 218.873 176.575 218.468 176.839 217.929C177.292 217.004 177.937 215.687 178.585 213.767C179.695 210.481 179.444 207.823 179.198 205.19C178.87 201.688 178.546 198.234 181.429 193.415C182.812 191.114 185.44 189.135 185.972 189.763C186.136 189.959 185.867 190.472 185.425 191.321C184.257 193.559 181.874 198.129 182.922 205.366C184.048 213.135 179.622 219.38 177.274 220.062ZM162.309 255.464C160.238 254.942 158.954 254.618 159.224 251.802C158.819 250.299 158.472 249.082 158.189 248.101C157.149 244.457 157.024 244.022 158.298 244.078C158.938 244.103 159.491 244.131 159.967 244.155C162.359 244.275 162.856 244.301 163.05 243.533C163.473 241.866 159.554 241.492 157.818 241.514C156.554 241.53 156.43 240.864 156.238 239.833C156.114 239.166 155.96 238.344 155.448 237.455C154.664 236.091 153.598 236.624 153.696 237.85C153.767 238.751 153.858 239.462 153.929 240.031V240.033C154.151 241.771 154.202 242.182 153.068 242.59C146.6 244.923 142.144 253.795 150.242 256.435C151.709 256.913 153.12 257.018 154.279 257.105C155.849 257.223 156.963 257.306 157.155 258.23C157.627 260.525 158.031 262.358 158.355 263.82V263.822V263.824V263.826C158.407 264.049 158.454 264.264 158.5 264.471L158.754 264.448C159.659 264.363 160.544 264.29 161.413 264.225C161.265 263.512 161.134 262.882 161.02 262.325L161.018 262.323V262.319V262.317V262.315C160.332 259.013 160.19 258.325 160.421 258.157C160.482 258.114 160.569 258.106 160.678 258.094L160.743 258.088C161.956 257.96 168.049 260.437 167.638 263.924C168.839 263.901 170.002 263.899 171.13 263.917C171.177 262.236 170.502 260.612 169.21 259.256C166.642 256.554 164.162 255.93 162.309 255.464ZM155.112 247.09L155.158 247.315C155.353 248.308 155.527 249.165 155.677 249.902L155.679 249.912C156.594 254.423 156.602 254.464 155.462 254.391C153.829 254.35 152.207 254.085 150.647 253.601C146.829 252.266 149.64 247.479 153.171 245.504C154.638 244.682 154.662 244.8 155.112 247.09Z"
        fill="#619B7D" />
    <path fill-rule="evenodd" clip-rule="evenodd"
        d="M150.09 188.894C148.315 190.069 146.332 190.919 144.114 191.339C141.864 194.476 141.368 197.373 140.867 200.3C140.382 203.138 139.891 206.002 137.794 209.14C136.567 210.979 135.514 212.181 134.776 213.025C134.348 213.515 134.025 213.884 133.838 214.184C132.863 213.054 131.318 212.108 129.143 211.636C126.074 210.969 122.964 210.54 119.855 210.11H119.854C116.001 209.578 112.148 209.045 108.37 208.062C107.153 207.746 106.134 209.089 109.873 210.592C114.205 212.331 119.036 212.965 123.119 213.503C128.627 214.227 132.773 214.773 132.493 217.609C132.241 220.119 127.64 219.317 123.139 218.533C121.596 218.264 120.065 217.998 118.725 217.867C115.403 217.544 115.522 218.365 117.986 219.554C122.452 221.725 129.123 222.941 132.858 221.089C134.996 220.028 135.7 217.569 134.635 215.383C137.294 215.33 143.708 210.021 144.722 201.538C145.49 195.147 148.127 191.229 150.09 188.894ZM128.694 184.802C126.884 183.606 124.74 182.258 122.137 180.763C116.37 180.287 112.794 182.225 110.997 197.013C110.95 197.42 111.066 197.829 111.319 198.149C111.573 198.471 111.944 198.676 112.351 198.724C112.757 198.771 113.166 198.657 113.487 198.402C113.808 198.149 114.015 197.778 114.062 197.371C115.792 182.531 118.496 183.012 125.918 184.332C126.778 184.485 127.701 184.649 128.694 184.802ZM84.3303 185.009C83.2875 183.06 83.491 182.793 85.6299 182.665C106.282 181.414 93.439 177.701 83.6253 180.174C79.5884 181.191 81.0104 185.536 83.5581 188.823C87.0073 193.273 89.0573 194.94 90.8915 196.431C93.2457 198.345 95.2444 199.968 99.3897 206.821C99.4332 206.892 99.4774 206.971 99.5234 207.054C99.7894 207.53 100.114 208.111 100.66 207.882C101.3 207.613 101.203 206.746 101.068 206.083C99.9036 200.286 95.8092 196.721 91.7739 193.208C88.905 190.709 86.066 188.238 84.3303 185.009ZM108.886 248.346C107.793 247.733 106.924 247.248 106.523 246.479C106.421 246.282 106.646 236.391 106.656 236.207C106.754 235.091 107.061 235.001 107.888 235.261C108.521 235.461 109.07 235.638 109.547 235.794L109.555 235.796L109.564 235.798L109.572 235.802C112.092 236.622 112.611 236.79 113.035 236.033C113.953 234.406 109.94 232.901 108.111 232.431C106.783 232.087 106.841 231.353 106.931 230.217C106.99 229.48 107.062 228.574 106.776 227.494C106.338 225.831 105.068 226.095 104.825 227.411C104.647 228.374 104.541 229.145 104.456 229.763C104.195 231.657 104.133 232.105 102.822 232.216C95.3686 232.836 88.1638 240.894 95.9354 245.96C97.3399 246.874 98.7889 247.386 99.9824 247.804C101.597 248.373 102.745 248.776 102.682 249.799C102.525 252.385 102.43 254.444 102.355 256.084C102.077 262.145 102.065 262.414 100.126 261.947C98.0582 261.446 96.4278 260.595 95.177 259.943C93.7226 259.184 92.7812 258.693 92.2619 259.331C90.674 261.29 96.6267 264.851 98.6748 265.289C101.001 265.787 102.086 266.857 101.61 269.32C101.579 269.725 101.71 270.126 101.974 270.436C102.239 270.744 102.615 270.936 103.021 270.965C103.426 270.997 103.828 270.867 104.136 270.602C104.445 270.337 104.636 269.96 104.667 269.555C104.805 268.899 104.799 268.342 104.795 267.882C104.786 266.946 104.781 266.403 105.978 266.213C115.016 264.776 117.7 259.147 115.063 254.284C113.129 250.718 110.699 249.359 108.886 248.346ZM106.142 250.641C106.218 250.611 106.311 250.627 106.429 250.647L106.498 250.658C108.325 250.953 118.759 259.319 106.247 262.323C105.386 262.53 105.159 262.086 105.21 261.323C105.385 258.681 105.502 256.686 105.59 255.181C105.805 251.512 105.85 250.749 106.142 250.641ZM103.694 237.55L103.679 237.756C103.603 238.874 103.541 239.835 103.488 240.663C103.172 245.628 103.168 245.675 101.997 245.28C100.292 244.773 98.6657 244.034 97.1619 243.084C93.522 240.602 97.8295 236.365 102.099 235.291C103.888 234.843 103.879 234.973 103.694 237.55ZM102.099 186.895C102.526 179.343 103.958 182.872 105.425 190.354C107.018 198.469 109.079 200.837 109.989 201.882C110.456 202.419 110.62 202.607 110.26 203.047C108.917 204.686 101.531 196.944 102.099 186.895ZM92.7717 208.873C93.7592 209.171 95.7026 207.509 90.0205 205.265C77.578 200.347 73.8453 206.819 74.9769 206.647C82.7112 205.52 86.728 206.869 90.6027 208.168C91.3228 208.411 92.0386 208.65 92.7717 208.873ZM86.0758 214.956C82.5345 215.172 75.84 215.576 74.3902 210.24C74.7312 209.286 76.0314 209.96 77.6507 210.799C78.7221 211.354 79.9338 211.98 81.0992 212.256C85.8554 213.408 92.0925 211.532 96.7746 210.123C100.544 208.99 103.306 208.158 103.476 209.456C103.567 210.161 102.725 210.511 100.841 211.289C98.3799 212.306 94.1425 214.056 87.8853 218.298C79.3624 224.077 77.6323 228.884 75.4095 235.058C73.5464 240.234 71.3372 246.373 64.4934 254.849C61.0016 259.177 58.4756 263.626 60.5731 268.761C60.7903 269.296 64.525 274.266 67.1715 275.146C67.8561 275.374 68.5455 275.599 69.2398 275.82C68.8369 276.566 68.7954 277.41 69.1416 278.31C67.8561 277.858 66.5759 277.388 65.3012 276.902C63.4024 276.116 61.701 274.921 60.3189 273.4C58.9366 271.882 57.9078 270.075 57.3064 268.109C55.426 261.716 58.0431 257.944 62.3735 251.701C65.7248 246.87 70.1028 240.558 74.2164 230.409C77.4846 222.341 83.4366 218.553 86.4461 216.637C87.6795 215.851 88.4188 215.381 88.2764 215.059C88.1747 214.83 87.3199 214.881 86.0758 214.956ZM145.202 265.651C143.927 260.585 143.153 255.082 142.402 249.74C140.668 237.406 139.054 225.933 131.669 222.684C131.615 222.661 131.558 222.631 131.499 222.601C131.161 222.434 130.752 222.228 130.423 222.669C129.967 223.279 130.394 223.644 131.247 224.371C133.012 225.876 136.602 228.935 137.975 238.97C139.675 251.395 141.83 259.907 143.395 265.803C143.975 265.753 144.577 265.704 145.202 265.651Z"
        fill="#619B7D" />
    <path
        d="M119.779 157.243C118.535 156.564 119.207 156.514 126.214 148.33C126.893 147.54 127.144 148.132 127.361 148.666C130.818 157.19 126.494 160.913 119.779 157.243Z"
        fill="#619B7D" />
    <path
        d="M128.995 132.362C130.865 132.406 135.013 133.431 133.772 134.831C127.735 141.649 127.539 142.808 126.486 140.9C124.804 137.853 120.714 132.169 128.995 132.362Z"
        fill="#619B7D" />
    <path fill-rule="evenodd" clip-rule="evenodd"
        d="M132.889 107.718C133.295 107.973 133.647 108.294 133.936 108.709C133.55 108.644 133.162 108.576 132.772 108.508C127.075 107.515 120.877 106.435 111.872 110.712C106.379 113.318 101.092 115.438 96.351 117.339C82.5793 122.861 73.405 126.539 77.1117 134.953C89.441 162.989 103.906 170.794 117.718 178.247C123.385 181.305 128.943 184.303 134.197 188.616C146.209 198.473 168.76 183.743 164.194 135.336C164.986 135.874 165.635 136.389 166.259 136.885C169.135 139.17 171.475 141.03 184.957 142.695C187.955 142.823 190.945 143.134 193.906 143.627C196.775 144.346 199.83 147.577 199.686 150C199.572 152.497 199.098 154.964 198.28 157.326C197.524 159.453 197.075 159.621 195.408 158.033C191.994 154.782 181.056 145.383 176.49 143.355C177.082 147.129 191.146 159.352 194.093 161.805C201.379 167.858 203.968 152.428 204.28 147.783C205.122 134.932 191.526 137.146 185.447 138.136C184.905 138.224 184.424 138.303 184.017 138.36C174.884 139.646 171.124 137.135 166.502 134.048C164.869 132.957 163.127 131.795 161.004 130.703C160.911 130.655 160.82 130.6 160.727 130.545C160.303 130.292 159.862 130.03 159.321 130.414C158.849 130.746 158.909 131.175 158.968 131.611C158.984 131.723 158.999 131.836 159.005 131.947C159.228 135.809 158.62 137.517 157.228 141.424C155.855 145.282 153.72 151.281 150.868 163.608C150.151 162.619 149.814 161.407 149.912 160.19C150.252 151.554 152.235 146.396 153.949 141.937C155.45 138.034 156.746 134.667 156.55 129.972C156.469 128.001 155.812 127.408 154.459 126.189C153.817 125.61 153.019 124.89 152.051 123.814C150.323 121.891 148.686 119.622 147.09 117.411C144.039 113.182 141.14 109.166 138.052 108.186C138.007 108.171 137.96 108.157 137.914 108.143C137.492 108.013 137.078 107.885 137.195 107.358C137.312 106.833 137.855 106.838 138.31 106.843L138.347 106.843C141.972 106.883 145.976 111.886 149.902 116.793C151.2 118.414 152.488 120.024 153.752 121.442C160.55 129.06 166.672 132.67 178.2 129.934C192.42 126.557 195.254 116.576 182.375 112.981C181.668 112.768 180.914 112.777 180.213 113.008C179.512 113.238 178.899 113.678 178.457 114.269C174.914 117.992 172.398 119.89 170.954 120.98C169.852 121.812 169.372 122.173 169.54 122.514C169.976 123.407 174.543 121.663 178.382 120.195C180.549 119.367 182.484 118.628 183.318 118.499C183.438 121.211 165.076 126.832 164.308 123.413C164.201 122.941 165.819 121.676 168.074 119.912C173.849 115.395 183.811 107.603 179.699 101.477C177.45 98.0876 167.751 91.108 168.957 97.3312C169.585 100.598 170.285 104.972 168.266 106.304C167.94 105.596 167.762 104.029 167.535 102.037C167.15 98.6475 166.627 94.0294 164.995 90.3239C163.38 86.6425 158.249 87.8058 154.558 88.9809C152.733 89.5611 152.413 90.8609 151.976 92.6356C151.757 93.5313 151.506 94.5482 151.018 95.6544C150.497 97.0257 149.669 98.2592 148.597 99.26C147.525 100.261 146.237 101.002 144.832 101.427C145.109 100.287 146.278 98.9264 147.521 97.4833C150.001 94.5996 152.766 91.3853 149.247 88.9315C149.193 88.8944 148.682 88.8586 147.823 88.8251C145.346 92.4824 142.735 93.5973 142.466 92.0716C141.37 91.0165 140.578 89.9759 139.902 88.6602C137.941 88.6343 135.804 88.612 133.627 88.5942C138.342 95.0574 140.874 100.393 136.767 105.253C135.659 106.564 134.338 107.343 132.889 107.718ZM138.738 138.385C140.02 140.221 140.451 140.837 141.214 140.311C142.674 139.3 140.48 135.893 139.285 134.588C138.322 133.532 138.72 133.102 139.485 132.273C140.007 131.708 140.7 130.958 141.248 129.697C141.911 128.175 140.709 127.726 139.765 128.534C138.995 129.19 138.427 129.799 137.96 130.298C136.824 131.516 136.291 132.086 134.91 131.125C129.341 127.247 118.008 129.79 121.464 137.979C122.339 140.048 123.247 141.425 123.911 142.432C124.824 143.816 125.276 144.501 124.549 145.328C122.153 148.051 120.506 150.03 119.342 151.428C116.579 154.748 116.532 154.804 115.622 153.82C113.907 151.97 112.995 150.04 112.331 148.637C111.671 147.241 111.256 146.364 110.543 146.602C107.841 147.498 111.244 154.136 112.529 155.866C114.042 157.895 114 157.935 113.278 158.623C112.936 158.949 112.442 159.419 111.887 160.314C111.694 160.603 111.609 160.952 111.648 161.299C111.686 161.645 111.847 161.966 112.1 162.205C112.354 162.445 112.684 162.586 113.032 162.605C113.38 162.624 113.723 162.519 114.001 162.309C114.516 161.997 114.863 161.513 115.182 161.067C115.777 160.235 116.275 159.538 117.593 160.353C123.485 163.987 131.31 162.712 131.813 155.382C132.073 151.609 130.956 149.074 130.167 147.283C129.544 145.871 129.126 144.921 129.745 144.19C131.732 141.84 133.12 140.074 134.123 138.799C136.406 135.895 136.689 135.534 137.476 136.61C137.976 137.293 138.388 137.884 138.738 138.385Z"
        fill="#619B7D" />
    <path
        d="M122.564 281.231C114.743 282.203 73.5981 271.619 72.5019 277.617C72.1247 279.685 81.0458 282.632 83.0583 283.24C100.833 288.622 117.773 288.77 138.775 299.421C139.915 299.998 143.515 301.86 142.782 303.069C142.221 303.995 142.338 303.428 129.631 298.594C108.453 290.534 71.4078 287.893 69.0556 278.054C66.0595 265.489 123.04 279.616 122.564 281.231Z"
        fill="#191919" />
    <path
        d="M71.8311 286.171C83.847 292.108 84.5501 292.886 97.3737 296.771C149.383 312.551 139.627 315.721 136.913 314.382C114.118 303.14 74.7501 297.614 71.8311 286.171Z"
        fill="#191919" />
    <path
        d="M242.109 375.18C235.495 372.857 224.322 358.493 220.159 352.851C212.883 342.986 210.531 348.533 219.608 337.572C220.564 336.417 221.751 335.963 215.085 335.113C162.795 328.446 158.027 336.778 109.885 315.312C107.977 314.461 85.3947 305.072 86.556 302.956C87.0043 302.137 132.178 319.213 142.901 322.766C165.276 330.18 179.389 324.729 221.77 332.731C222.25 332.901 222.77 332.919 223.26 332.781C223.749 332.643 224.184 332.356 224.502 331.959C228.513 326.783 239.642 313.406 244.888 299.81C246.594 295.392 246.535 295.242 242.02 293.964C206.826 284.012 198.671 264.369 162.939 267.458C136.391 269.755 122.965 268.761 126.402 274.173C129.957 279.788 143.979 282.942 150.73 283.801C158.286 284.761 173.64 284.804 184.632 289.607C185.318 289.907 186.663 290.054 186.212 291.223C185.817 292.266 184.729 291.734 183.91 291.543C162.418 286.54 132.789 288.602 124.03 275.368C120.775 270.45 126.518 267.321 132.388 266.786C180.363 262.414 180.862 259.652 218.354 280.745C240.908 293.435 281.915 298.767 289.406 301.601C291.146 302.261 289.687 303.251 289.487 303.27C281.325 304.1 260.976 298.998 254.53 297.42C250.167 296.352 249.916 295.953 249.503 297.201C238.787 329.591 216.063 342.995 218.709 345.786C225.616 353.07 241.939 374.915 242.109 375.18Z"
        fill="#191919" />
    <path
        d="M141.278 86.1546C140.847 94.2363 138.576 85.7596 136.463 77.9426C132.69 64.007 121.96 51.916 117.724 51.6553C112.994 51.363 113.954 57.0787 115.725 61.473C124.164 82.408 145.5 94.9118 136.767 105.253C132.26 110.585 124.249 107.125 118.368 103.442C99.0127 91.3252 94.9639 82.0051 70.0572 76.803C56.4929 73.9689 54.0044 74.1348 47.8582 69.7404C47.5264 69.5034 46.8707 69.296 47.163 68.741C47.4138 68.2809 48.0103 68.508 48.4231 68.6245C62.6431 72.6535 65.3962 71.6522 74.1099 74.0874C94.4524 79.7734 95.0449 81.9103 106.642 90.2014C115.713 96.6814 124.828 103.93 130.83 103.857C136.392 103.789 135.404 97.7755 131.853 92.68C125.778 83.9643 114.775 73.4593 111.364 59.5316C109.117 50.3538 115.117 46.3129 120.874 48.8666C130.36 53.0734 139.899 71.4507 141.278 86.1546Z"
        fill="#191919" />
    <path
        d="M0 79.507C13.6631 73.3015 44.1709 85.1298 56.9748 36.4678C58.6784 30.3868 59.7285 24.1414 60.1071 17.8376C60.1901 14.2431 21.172 2.30227 18.2075 0.0882914C22.0627 -0.843908 44.718 5.73087 61.0315 13.8896C63.1072 14.9284 63.4172 16.2853 61.2546 29.1188C57.9939 48.4837 49.221 70.9256 30.7192 77.5063C20.6348 81.1028 3.34367 82.1456 0 79.507Z"
        fill="#191919" />
    <path
        d="M105.264 25.1429C92.7996 25.1864 82.5059 28.5004 66.9804 26.2272C66.2595 26.1225 65.0054 26.1423 65.1041 25.0955C65.2088 23.9757 66.4274 24.3806 67.1404 24.4201C87.4295 25.5399 103.03 19.4826 120.479 23.6972C155.8 32.2411 158.632 85.4772 144.207 92.3996C143.743 92.6208 143.186 93.0849 142.686 92.524C141.007 90.6359 151.931 83.3798 148.669 63.3296C144.179 35.7507 128.387 25.062 105.264 25.1429Z"
        fill="#191919" />
</svg>