<svg width="28" height="29" viewBox="0 0 28 29" fill="none" xmlns="http://www.w3.org/2000/svg">
<g clip-path="url(#clip0_7043_11552)">
<path d="M25.4227 22.144C25.0143 23.095 24.5101 24.0019 23.9177 24.8507C23.1255 25.9794 22.4774 26.7605 21.9781 27.1945C21.204 27.9062 20.3739 28.2713 19.4855 28.2917C18.8479 28.2917 18.0791 28.1103 17.1837 27.7422C16.2854 27.3759 15.4599 27.1939 14.7051 27.1939C13.9135 27.1939 13.0648 27.3759 12.1565 27.7422C11.2471 28.1103 10.5144 28.3022 9.95445 28.3209C9.10278 28.3577 8.25345 27.9826 7.40528 27.1945C6.86453 26.722 6.18845 25.9135 5.37761 24.7678C4.50786 23.544 3.7927 22.1253 3.2327 20.5072C2.63303 18.7601 2.33203 17.0678 2.33203 15.4298C2.33203 13.5532 2.73745 11.9351 3.54945 10.5788C4.1882 9.48916 5.03695 8.63049 6.09978 7.99933C7.14248 7.37536 8.33222 7.03957 9.54728 7.02633C10.2239 7.02633 11.1112 7.23574 12.2143 7.64699C13.3139 8.05941 14.0197 8.26883 14.3294 8.26883C14.5604 8.26883 15.345 8.02383 16.6744 7.53616C17.9321 7.08349 18.9932 6.89624 19.8624 6.97033C22.2184 7.16049 23.9883 8.08916 25.1649 9.76216C23.0584 11.0385 22.016 12.8264 22.037 15.1201C22.0557 16.9068 22.7038 18.3937 23.9778 19.5738C24.5553 20.1222 25.1999 20.5457 25.9168 20.8461C25.7665 21.2841 25.6017 21.7169 25.4227 22.144V22.144ZM20.0199 0.883826C20.0199 2.28383 19.5083 3.59166 18.4886 4.80149C17.2578 6.24058 15.7697 7.07183 14.1556 6.94058C14.1339 6.76446 14.123 6.58719 14.1229 6.40974C14.1229 5.06574 14.708 3.62724 15.7475 2.45066C16.2667 1.85508 16.9259 1.35983 17.7262 0.964909C18.5254 0.575826 19.2802 0.360576 19.9907 0.323242C20.0111 0.510492 20.0199 0.697742 20.0199 0.883242V0.883826Z" fill="white"/>
</g>
<defs>
<clipPath id="clip0_7043_11552">
<rect width="28" height="28" fill="white" transform="translate(0 0.323242)"/>
</clipPath>
</defs>
</svg>
