<svg width="176" height="129" viewBox="0 0 176 129" fill="none" xmlns="http://www.w3.org/2000/svg">
<path d="M168 40.1131C168 35.2665 168 32.8433 167.042 31.7212C166.21 30.7475 164.963 30.2308 163.686 30.3313C162.215 30.4471 160.502 32.1606 157.075 35.5876L128 64.6621L157.075 93.7366C160.502 97.1636 162.215 98.8771 163.686 98.9929C164.963 99.0934 166.21 98.5767 167.042 97.6031C168 96.4809 168 94.0577 168 89.2111V40.1131Z" stroke="#FAFAFA" stroke-width="16" stroke-linecap="round" stroke-linejoin="round"/>
<path d="M8 47.0621C8 33.6209 8 26.9002 10.6158 21.7663C12.9168 17.2504 16.5883 13.5789 21.1042 11.278C26.2381 8.66211 32.9587 8.66211 46.4 8.66211H89.6C103.041 8.66211 109.762 8.66211 114.896 11.278C119.412 13.5789 123.083 17.2504 125.384 21.7663C128 26.9002 128 33.6208 128 47.0621V82.2621C128 95.7034 128 102.424 125.384 107.558C123.083 112.074 119.412 115.745 114.896 118.046C109.762 120.662 103.041 120.662 89.6 120.662H46.4C32.9587 120.662 26.2381 120.662 21.1042 118.046C16.5883 115.745 12.9168 112.074 10.6158 107.558C8 102.424 8 95.7034 8 82.2621V47.0621Z" stroke="#FAFAFA" stroke-width="16" stroke-linecap="round" stroke-linejoin="round"/>
</svg>
