<svg width="49" height="50" viewBox="0 0 49 50" fill="none" xmlns="http://www.w3.org/2000/svg">
<path d="M12.4984 15.6707H24.4984M12.4984 24.0707H31.6984M12.4984 38.4707V44.0759C12.4984 45.3547 12.4984 45.9942 12.7606 46.3226C12.9886 46.6082 13.3343 46.7744 13.6997 46.774C14.1199 46.7735 14.6192 46.3741 15.6179 45.5752L21.3429 40.9951C22.5125 40.0595 23.0972 39.5917 23.7484 39.259C24.3261 38.9638 24.9411 38.7481 25.5766 38.6177C26.2928 38.4707 27.0417 38.4707 28.5394 38.4707H34.5784C38.6108 38.4707 40.627 38.4707 42.1672 37.686C43.5219 36.9957 44.6234 35.8942 45.3137 34.5394C46.0984 32.9993 46.0984 30.9831 46.0984 26.9507V13.9907C46.0984 9.95833 46.0984 7.94214 45.3137 6.40197C44.6234 5.0472 43.5219 3.94574 42.1672 3.25546C40.627 2.4707 38.6108 2.4707 34.5784 2.4707H14.4184C10.3861 2.4707 8.36987 2.4707 6.82971 3.25546C5.47494 3.94574 4.37348 5.0472 3.68319 6.40197C2.89844 7.94214 2.89844 9.95832 2.89844 13.9907V28.8707C2.89844 31.1026 2.89844 32.2186 3.14377 33.1342C3.80953 35.6189 5.75028 37.5596 8.23494 38.2254C9.15054 38.4707 10.2665 38.4707 12.4984 38.4707Z" stroke="#FAFAFA" stroke-width="4.8" stroke-linecap="round" stroke-linejoin="round"/>
</svg>
