<svg width="31" height="31" viewBox="0 0 31 31" fill="none" xmlns="http://www.w3.org/2000/svg">
<path d="M15.125 0.821289C6.8408 0.821289 0.125 7.53709 0.125 15.8213C0.125 22.8557 4.9682 28.7585 11.5016 30.3797V20.4053H8.4086V15.8213H11.5016V13.8461C11.5016 8.74069 13.8122 6.37429 18.8246 6.37429C19.775 6.37429 21.4148 6.56089 22.0856 6.74689V10.9019C21.7316 10.8647 21.1166 10.8461 20.3528 10.8461C17.8934 10.8461 16.943 11.7779 16.943 14.2001V15.8213H21.8426L21.0008 20.4053H16.943V30.7115C24.3704 29.8145 30.1256 23.4905 30.1256 15.8213C30.125 7.53709 23.4092 0.821289 15.125 0.821289Z" fill="white"/>
</svg>
