<svg width="50" height="50" viewBox="0 0 50 50" fill="none" xmlns="http://www.w3.org/2000/svg">
<g clip-path="url(#clip0_4655_8759)">
<path d="M42.1041 19.0126V17.0903C42.1041 12.4895 40.476 8.21429 37.5243 5.04202C34.4991 1.78571 30.3394 0 25.8016 0H24.2155C19.6777 0 15.518 1.78571 12.4928 5.04202C9.5411 8.21429 7.91295 12.4895 7.91295 17.0903V19.0126C4.33101 19.2542 1.48438 22.2374 1.48438 25.8824V28.8866C1.48438 32.6786 4.57261 35.7668 8.36463 35.7668H12.2407C12.934 35.7668 13.5012 35.1996 13.5012 34.5063V20.2521C13.5012 19.5588 12.934 18.9916 12.2407 18.9916H10.434V17.0903C10.434 8.78151 16.3583 2.52101 24.205 2.52101H25.7911C33.6482 2.52101 39.5621 8.78151 39.5621 17.0903V18.9916H37.7554C37.0621 18.9916 36.4949 19.5588 36.4949 20.2521V34.4958C36.4949 35.1891 37.0621 35.7563 37.7554 35.7563H39.5201C39.0054 42.3319 34.4781 43.855 32.3772 44.2017C31.7995 42.4265 30.1293 41.145 28.165 41.145H25.0138C22.5768 41.145 20.5915 43.1303 20.5915 45.5672C20.5915 48.0042 22.5768 50 25.0138 50H28.1756C30.2134 50 31.9256 48.6134 32.4403 46.7437C33.4697 46.5966 35.0978 46.229 36.7155 45.2836C38.9949 43.9496 41.6945 41.229 42.0516 35.7458C45.6545 35.5252 48.5117 32.5315 48.5117 28.8761V25.8718C48.5222 22.2374 45.6861 19.2437 42.1041 19.0126ZM11.0012 33.2353H8.38564C5.98017 33.2353 4.02639 31.2815 4.02639 28.8761V25.8718C4.02639 23.4664 5.98017 21.5126 8.38564 21.5126H11.0012V33.2353ZM28.1756 47.479H25.0138C23.9634 47.479 23.1125 46.6282 23.1125 45.5777C23.1125 44.5273 23.9634 43.6765 25.0138 43.6765H28.1756C29.226 43.6765 30.0768 44.5273 30.0768 45.5777C30.0768 46.6282 29.226 47.479 28.1756 47.479ZM46.0012 28.8761C46.0012 31.2815 44.0474 33.2353 41.6419 33.2353H39.0264V21.5126H41.6419C44.0474 21.5126 46.0012 23.4664 46.0012 25.8718V28.8761Z" fill="#F9FFF6"/>
</g>
<defs>
<clipPath id="clip0_4655_8759">
<rect width="50" height="50" fill="white"/>
</clipPath>
</defs>
</svg>
