<svg width="31" height="31" viewBox="0 0 31 31" fill="none" xmlns="http://www.w3.org/2000/svg">
<g clip-path="url(#clip0_4762_3228)">
<path d="M15.125 3.52246C19.1328 3.52246 19.6074 3.54004 21.1836 3.61035C22.6484 3.6748 23.4395 3.9209 23.9668 4.12598C24.6641 4.39551 25.168 4.72363 25.6895 5.24512C26.2168 5.77246 26.5391 6.27051 26.8086 6.96777C27.0137 7.49512 27.2598 8.29199 27.3242 9.75098C27.3945 11.333 27.4121 11.8076 27.4121 15.8096C27.4121 19.8174 27.3945 20.292 27.3242 21.8682C27.2598 23.333 27.0137 24.124 26.8086 24.6514C26.5391 25.3486 26.2109 25.8525 25.6895 26.374C25.1621 26.9014 24.6641 27.2236 23.9668 27.4932C23.4395 27.6982 22.6426 27.9443 21.1836 28.0088C19.6016 28.0791 19.127 28.0967 15.125 28.0967C11.1172 28.0967 10.6426 28.0791 9.06641 28.0088C7.60156 27.9443 6.81055 27.6982 6.2832 27.4932C5.58594 27.2236 5.08203 26.8955 4.56055 26.374C4.0332 25.8467 3.71094 25.3486 3.44141 24.6514C3.23633 24.124 2.99023 23.3272 2.92578 21.8682C2.85547 20.2861 2.83789 19.8115 2.83789 15.8096C2.83789 11.8018 2.85547 11.3271 2.92578 9.75098C2.99023 8.28613 3.23633 7.49512 3.44141 6.96777C3.71094 6.27051 4.03906 5.7666 4.56055 5.24512C5.08789 4.71777 5.58594 4.39551 6.2832 4.12598C6.81055 3.9209 7.60742 3.6748 9.06641 3.61035C10.6426 3.54004 11.1172 3.52246 15.125 3.52246ZM15.125 0.821289C11.0527 0.821289 10.543 0.838867 8.94336 0.90918C7.34961 0.979492 6.25391 1.2373 5.30469 1.60645C4.31445 1.99316 3.47656 2.50293 2.64453 3.34082C1.80664 4.17285 1.29688 5.01074 0.910156 5.99512C0.541016 6.9502 0.283203 8.04004 0.212891 9.63379C0.142578 11.2393 0.125 11.749 0.125 15.8213C0.125 19.8936 0.142578 20.4033 0.212891 22.0029C0.283203 23.5967 0.541016 24.6924 0.910156 25.6416C1.29688 26.6318 1.80664 27.4697 2.64453 28.3018C3.47656 29.1338 4.31445 29.6494 5.29883 30.0303C6.25391 30.3994 7.34375 30.6572 8.9375 30.7275C10.5371 30.7979 11.0469 30.8154 15.1191 30.8154C19.1914 30.8154 19.7012 30.7979 21.3008 30.7275C22.8945 30.6572 23.9902 30.3994 24.9395 30.0303C25.9238 29.6494 26.7617 29.1338 27.5938 28.3018C28.4258 27.4697 28.9414 26.6318 29.3223 25.6475C29.6914 24.6924 29.9492 23.6025 30.0195 22.0088C30.0898 20.4092 30.1074 19.8994 30.1074 15.8271C30.1074 11.7549 30.0898 11.2451 30.0195 9.64551C29.9492 8.05176 29.6914 6.95605 29.3223 6.00684C28.9531 5.01074 28.4434 4.17285 27.6055 3.34082C26.7734 2.50879 25.9355 1.99316 24.9512 1.6123C23.9961 1.24316 22.9063 0.985352 21.3125 0.915039C19.707 0.838867 19.1973 0.821289 15.125 0.821289Z" fill="white"/>
<path d="M15.127 8.11621C10.873 8.11621 7.42188 11.5674 7.42188 15.8213C7.42188 20.0752 10.873 23.5264 15.127 23.5264C19.3809 23.5264 22.832 20.0752 22.832 15.8213C22.832 11.5674 19.3809 8.11621 15.127 8.11621ZM15.127 20.8193C12.3672 20.8193 10.1289 18.5811 10.1289 15.8213C10.1289 13.0615 12.3672 10.8232 15.127 10.8232C17.8867 10.8232 20.125 13.0615 20.125 15.8213C20.125 18.5811 17.8867 20.8193 15.127 20.8193Z" fill="white"/>
<path d="M24.9336 7.81153C24.9336 8.80762 24.125 9.61036 23.1348 9.61036C22.1387 9.61036 21.3359 8.80176 21.3359 7.81153C21.3359 6.81543 22.1445 6.0127 23.1348 6.0127C24.125 6.0127 24.9336 6.82129 24.9336 7.81153Z" fill="white"/>
</g>
<defs>
<clipPath id="clip0_4762_3228">
<rect width="30" height="30" fill="white" transform="translate(0.125 0.821289)"/>
</clipPath>
</defs>
</svg>
