<svg width="31" height="31" viewBox="0 0 31 31" fill="none" xmlns="http://www.w3.org/2000/svg">
<g clip-path="url(#clip0_4762_3229)">
<path d="M27.9043 0.821289H2.33984C1.11523 0.821289 0.125 1.78809 0.125 2.9834V28.6533C0.125 29.8486 1.11523 30.8213 2.33984 30.8213H27.9043C29.1289 30.8213 30.125 29.8486 30.125 28.6592V2.9834C30.125 1.78809 29.1289 0.821289 27.9043 0.821289ZM9.02539 26.3857H4.57227V12.0654H9.02539V26.3857ZM6.79883 10.1143C5.36914 10.1143 4.21484 8.95996 4.21484 7.53613C4.21484 6.1123 5.36914 4.95801 6.79883 4.95801C8.22266 4.95801 9.37695 6.1123 9.37695 7.53613C9.37695 8.9541 8.22266 10.1143 6.79883 10.1143ZM25.6895 26.3857H21.2422V19.4248C21.2422 17.7666 21.2129 15.6279 18.9277 15.6279C16.6133 15.6279 16.2617 17.4385 16.2617 19.3076V26.3857H11.8203V12.0654H16.0859V14.0225H16.1445C16.7363 12.8975 18.1895 11.708 20.3516 11.708C24.8574 11.708 25.6895 14.6729 25.6895 18.5283V26.3857Z" fill="white"/>
</g>
<defs>
<clipPath id="clip0_4762_3229">
<rect width="30" height="30" fill="white" transform="translate(0.125 0.821289)"/>
</clipPath>
</defs>
</svg>
