<svg width="46" height="63" viewBox="0 0 46 63" fill="none" xmlns="http://www.w3.org/2000/svg">
<path fill-rule="evenodd" clip-rule="evenodd" d="M23.0585 41.5414C33.2391 41.5414 41.492 33.2884 41.492 23.1078C41.492 12.9272 33.2391 4.67422 23.0585 4.67422C12.8779 4.67422 4.6249 12.9272 4.6249 23.1078C4.6249 33.2884 12.8779 41.5414 23.0585 41.5414ZM23.0585 46.0374C35.7221 46.0374 45.988 35.7714 45.988 23.1078C45.988 10.4441 35.7221 0.178223 23.0585 0.178223C10.3948 0.178223 0.128906 10.4441 0.128906 23.1078C0.128906 35.7714 10.3948 46.0374 23.0585 46.0374Z" fill="#FCFCFC"/>
<path fill-rule="evenodd" clip-rule="evenodd" d="M0.132691 60.7843C0.137073 60.0394 0.744492 59.4391 1.4894 59.4435L44.651 59.6974C45.3959 59.7018 45.9962 60.3092 45.9918 61.0541C45.9874 61.799 45.38 62.3993 44.6351 62.3949L1.47353 62.141C0.728624 62.1366 0.128309 61.5292 0.132691 60.7843Z" fill="#FCFCFC"/>
<path fill-rule="evenodd" clip-rule="evenodd" d="M7.5 55.3883C7.5 54.6434 8.10388 54.0396 8.8488 54.0396H37.1736C37.9185 54.0396 38.5224 54.6434 38.5224 55.3883C38.5224 56.1333 37.9185 56.7371 37.1736 56.7371H8.8488C8.10388 56.7371 7.5 56.1333 7.5 55.3883Z" fill="#FCFCFC"/>
<path fill-rule="evenodd" clip-rule="evenodd" d="M20.3594 50.443C20.3594 49.6981 20.9633 49.0942 21.7082 49.0942H23.057C23.8019 49.0942 24.4058 49.6981 24.4058 50.443C24.4058 51.188 23.8019 51.7918 23.057 51.7918H21.7082C20.9633 51.7918 20.3594 51.188 20.3594 50.443Z" fill="#FCFCFC"/>
</svg>
