<svg width="724" height="616" viewBox="0 0 724 616" fill="none" xmlns="http://www.w3.org/2000/svg">
<g opacity="0.5">
<path fill-rule="evenodd" clip-rule="evenodd" d="M335.273 143.82L432.725 186.534C434.963 187.515 437.054 188.804 438.935 190.363L776.246 469.849C777.771 471.113 779.148 472.544 780.35 474.117L863.586 582.969L861.6 584.488L778.364 475.636C777.276 474.213 776.03 472.917 774.651 471.774L437.34 192.288C435.638 190.878 433.747 189.712 431.722 188.824L338.033 147.759L348.31 306.833C348.603 311.37 350.192 315.728 352.888 319.388L584.882 634.316C591.432 643.208 591.717 655.249 585.594 664.439L461.835 850.204L459.754 848.818L583.513 663.053C589.053 654.738 588.796 643.844 582.87 635.799L350.876 320.871C347.895 316.825 346.139 312.009 345.815 306.994L335.273 143.82Z" fill="#929292" fill-opacity="0.25"/>
<path fill-rule="evenodd" clip-rule="evenodd" d="M99.7783 477.558L577.309 650.842L576.883 652.017L99.3519 478.733L99.7783 477.558Z" fill="#929292" fill-opacity="0.45"/>
<path fill-rule="evenodd" clip-rule="evenodd" d="M389.438 75.3689L49.1494 552.436L46.0964 550.259L386.385 73.1913C394.93 61.2112 411.521 58.3313 423.604 66.7305L1176.51 590.102L1174.37 593.181L421.463 69.8097C411.067 62.5824 396.791 65.0605 389.438 75.3689Z" fill="#929292" fill-opacity="0.25"/>
<path fill-rule="evenodd" clip-rule="evenodd" d="M230.062 694.101L660.857 46.4557C668.412 35.0975 683.278 31.2012 695.433 37.3933L1241.21 315.43L1239.51 318.772L1143.4 269.808L1085.68 528.533L1082.02 527.716L1139.95 268.051L693.731 40.7347C683.272 35.4066 670.48 38.7593 663.979 48.5326L233.185 696.178L230.062 694.101Z" fill="#929292" fill-opacity="0.25"/>
<path fill-rule="evenodd" clip-rule="evenodd" d="M279.158 394.571L139.39 622.113L136.195 620.151L275.963 392.608C284.299 379.036 302.545 375.652 315.194 385.331L795.859 753.135C810.017 763.968 830.591 755.384 832.851 737.701L923.35 29.5653L927.07 30.0407L836.571 738.177C833.944 758.727 810.034 768.703 793.58 756.113L312.915 388.309C302.031 379.98 286.331 382.892 279.158 394.571Z" fill="#929292" fill-opacity="0.25"/>
<path fill-rule="evenodd" clip-rule="evenodd" d="M433.684 188.935L585.692 -178.353C591.368 -192.067 607.087 -198.584 620.802 -192.908L1281.46 80.5164L1280.02 83.9814L619.368 -189.443C607.567 -194.327 594.041 -188.719 589.157 -176.918L437.149 190.369L433.684 188.935Z" fill="#929292" fill-opacity="0.25"/>
<path fill-rule="evenodd" clip-rule="evenodd" d="M713.448 49.0354L642.702 219.974L641.547 219.496L712.293 48.5574L713.448 49.0354Z" fill="#929292" fill-opacity="0.45"/>
<path fill-rule="evenodd" clip-rule="evenodd" d="M749.01 67.6831L709.089 262.202L707.865 261.951L747.785 67.4318L749.01 67.6831Z" fill="#929292" fill-opacity="0.45"/>
<path fill-rule="evenodd" clip-rule="evenodd" d="M873.116 447.096L516.806 543.139L516.48 541.932L872.791 445.889L873.116 447.096Z" fill="#929292" fill-opacity="0.45"/>
<path fill-rule="evenodd" clip-rule="evenodd" d="M1019.8 59.2384L547.099 -80.0173L547.452 -81.2164L1273.35 132.629L1273 133.828L1021.11 59.6235L1039.65 209.407L1038.41 209.561L1019.8 59.2384Z" fill="#929292" fill-opacity="0.45"/>
<path fill-rule="evenodd" clip-rule="evenodd" d="M517.142 542.914L338.855 777.571L337.86 776.814L516.147 542.157L517.142 542.914Z" fill="#929292" fill-opacity="0.45"/>
</g>
</svg>
