<svg width="470" height="562" viewBox="0 0 470 562" fill="none" xmlns="http://www.w3.org/2000/svg">
<g opacity="0.6">
<path fill-rule="evenodd" clip-rule="evenodd" d="M257.523 105.556L179.908 138.045C177.524 139.043 175.518 140.774 174.181 142.987L70.5607 314.493C67.6289 319.345 61.9735 321.844 56.4118 320.744L-56 298.508L-55.751 297.249L56.6608 319.485C61.6928 320.48 66.8097 318.219 69.4623 313.829L173.082 142.323C174.56 139.877 176.777 137.965 179.413 136.861L257.028 104.372L257.523 105.556Z" fill="#929292" fill-opacity="0.25"/>
<path fill-rule="evenodd" clip-rule="evenodd" d="M112.434 546.794L200.347 324.765L205.12 326.655L117.207 548.684L112.434 546.794Z" fill="#4C7F64"/>
<path fill-rule="evenodd" clip-rule="evenodd" d="M365.279 395.334C362.588 395.334 359.97 396.201 357.811 397.807L231.801 491.526L231.418 491.011L357.428 397.292C359.697 395.604 362.45 394.692 365.279 394.692H427.971V395.334H365.279Z" fill="#929292" fill-opacity="0.45"/>
<path fill-rule="evenodd" clip-rule="evenodd" d="M49.684 53.6138L61.2347 314.145L60.5936 314.174L49.043 53.6422L49.684 53.6138Z" fill="#929292" fill-opacity="0.45"/>
<path fill-rule="evenodd" clip-rule="evenodd" d="M297.328 112.056L4.23047 44.2985L4.66408 42.4229L297.761 110.18C305.121 111.882 309.745 119.186 308.133 126.567L207.682 586.447L205.801 586.036L306.252 126.156C307.639 119.805 303.661 113.52 297.328 112.056Z" fill="#929292" fill-opacity="0.25"/>
<path fill-rule="evenodd" clip-rule="evenodd" d="M-27.452 157.922L364.325 235.123C371.196 236.477 375.963 242.764 375.412 249.745L350.672 563.215L348.753 563.063L353.11 507.86L219.054 531.273L218.723 529.376L353.266 505.879L373.493 249.594C373.967 243.586 369.865 238.177 363.953 237.012L-27.8242 159.811L-27.452 157.922Z" fill="#929292" fill-opacity="0.25"/>
<path fill-rule="evenodd" clip-rule="evenodd" d="M94.6484 527.04L149.193 435.276L149.745 435.604L95.2 527.368L94.6484 527.04Z" fill="#929292" fill-opacity="0.45"/>
<path fill-rule="evenodd" clip-rule="evenodd" d="M162.019 573.904L245.441 408.345L246.014 408.633L162.592 574.193L162.019 573.904ZM124.164 552.718L195.393 423.094L195.955 423.403L124.726 553.027L124.164 552.718Z" fill="#929292" fill-opacity="0.45"/>
<path fill-rule="evenodd" clip-rule="evenodd" d="M124.266 122.408L-11.1055 100.781L-10.8018 98.8799L124.57 120.507C132.644 121.797 137.832 129.788 135.723 137.688L55.6203 437.893C53.261 446.736 61.3717 454.81 70.2031 452.41L423.868 356.32L424.373 358.178L70.7079 454.268C60.4443 457.057 51.0183 447.673 53.7603 437.397L133.863 137.192C135.677 130.394 131.214 123.518 124.266 122.408Z" fill="#929292" fill-opacity="0.25"/>
<path fill-rule="evenodd" clip-rule="evenodd" d="M252.145 155.337H456.206C463.826 155.337 470.003 161.514 470.003 169.134V536.188H468.078V169.134C468.078 162.578 462.762 157.263 456.206 157.263H252.145V155.337Z" fill="#929292" fill-opacity="0.25"/>
<path fill-rule="evenodd" clip-rule="evenodd" d="M373.425 260.577H278.453V259.935H373.425V260.577Z" fill="#929292" fill-opacity="0.45"/>
<path fill-rule="evenodd" clip-rule="evenodd" d="M371.559 281.106L271.453 300.357L271.332 299.727L371.438 280.476L371.559 281.106Z" fill="#929292" fill-opacity="0.45"/>
<path fill-rule="evenodd" clip-rule="evenodd" d="M324.977 384.704L337.811 288.448L338.447 288.533L325.613 384.788L324.977 384.704Z" fill="#929292" fill-opacity="0.45"/>
<path fill-rule="evenodd" clip-rule="evenodd" d="M215.952 414.46L100.445 264.302L100.954 263.911L216.46 414.069L215.952 414.46Z" fill="#929292" fill-opacity="0.45"/>
<path fill-rule="evenodd" clip-rule="evenodd" d="M428.723 407.896L401.978 156.334L402.617 156.266L443.686 542.571L443.047 542.639L428.796 408.591L361.387 446.788L361.07 446.23L428.723 407.896Z" fill="#929292" fill-opacity="0.45"/>
<path fill-rule="evenodd" clip-rule="evenodd" d="M100.621 264.416L-45.6875 225.914L-45.5242 225.293L100.784 263.795L100.621 264.416Z" fill="#929292" fill-opacity="0.45"/>
<path d="M333.735 398.257C333.686 398.29 333.612 398.347 333.512 398.428C333.412 398.509 333.288 398.589 333.138 398.668C332.988 398.747 332.82 398.81 332.634 398.855C332.441 398.903 332.249 398.911 332.059 398.88C331.875 398.848 331.715 398.771 331.579 398.649C331.442 398.521 331.346 398.347 331.292 398.128L330.379 394.408L329.661 394.585L329.529 394.046L330.247 393.87L329.816 392.115L330.494 391.949L330.925 393.704L332.121 393.41L332.253 393.948L331.057 394.242L331.924 397.772C331.983 397.954 332.084 398.078 332.226 398.141C332.375 398.203 332.53 398.215 332.689 398.176C332.875 398.13 333.037 398.058 333.176 397.961C333.312 397.857 333.394 397.788 333.42 397.753L333.735 398.257Z" fill="white" fill-opacity="0.7"/>
<path d="M327.761 400.093C327.389 400.185 327.026 400.2 326.672 400.139C326.317 400.071 325.993 399.942 325.7 399.754C325.406 399.558 325.152 399.314 324.939 399.021C324.733 398.726 324.584 398.393 324.492 398.02C324.373 397.535 324.373 397.063 324.493 396.603C324.62 396.142 324.849 395.744 325.183 395.408C325.515 395.066 325.93 394.834 326.428 394.711C326.94 394.586 327.416 394.599 327.855 394.752C328.301 394.903 328.683 395.155 329.002 395.506C329.32 395.851 329.537 396.263 329.655 396.742C329.668 396.795 329.681 396.848 329.694 396.901C329.705 396.948 329.711 396.985 329.711 397.013L325.264 398.106C325.389 398.47 325.573 398.777 325.818 399.027C326.068 399.269 326.353 399.442 326.675 399.546C327.002 399.642 327.331 399.649 327.663 399.567C328.002 399.484 328.3 399.319 328.557 399.073C328.82 398.825 328.977 398.547 329.029 398.238L329.656 398.253C329.61 398.525 329.502 398.788 329.331 399.041C329.161 399.295 328.94 399.515 328.669 399.701C328.403 399.879 328.1 400.01 327.761 400.093ZM325.124 397.622L328.963 396.679C328.843 396.307 328.658 396 328.409 395.758C328.166 395.515 327.882 395.348 327.557 395.259C327.237 395.161 326.907 395.154 326.568 395.237C326.229 395.321 325.94 395.48 325.702 395.714C325.462 395.943 325.288 396.225 325.181 396.561C325.078 396.89 325.059 397.243 325.124 397.622Z" fill="white" fill-opacity="0.7"/>
<path d="M321.913 401.531C321.541 401.622 321.178 401.637 320.825 401.576C320.47 401.508 320.146 401.38 319.853 401.191C319.558 400.996 319.304 400.751 319.091 400.458C318.885 400.164 318.736 399.83 318.645 399.458C318.525 398.973 318.526 398.5 318.645 398.041C318.772 397.58 319.002 397.182 319.335 396.846C319.667 396.504 320.082 396.271 320.581 396.149C321.093 396.023 321.568 396.037 322.007 396.19C322.453 396.341 322.836 396.592 323.155 396.944C323.472 397.289 323.69 397.701 323.807 398.179C323.82 398.232 323.833 398.286 323.846 398.339C323.858 398.385 323.863 398.423 323.863 398.451L319.416 399.543C319.541 399.907 319.726 400.214 319.97 400.464C320.22 400.706 320.506 400.879 320.827 400.983C321.154 401.079 321.483 401.087 321.816 401.005C322.155 400.922 322.453 400.757 322.709 400.511C322.973 400.263 323.13 399.984 323.181 399.676L323.808 399.691C323.762 399.963 323.654 400.226 323.484 400.479C323.313 400.732 323.093 400.952 322.821 401.139C322.555 401.317 322.252 401.447 321.913 401.531ZM319.276 399.06L323.115 398.117C322.995 397.744 322.811 397.437 322.561 397.195C322.318 396.952 322.034 396.786 321.709 396.696C321.389 396.599 321.059 396.592 320.72 396.675C320.381 396.758 320.093 396.917 319.854 397.152C319.614 397.38 319.441 397.662 319.333 397.999C319.23 398.327 319.211 398.681 319.276 399.06Z" fill="white" fill-opacity="0.7"/>
<path d="M317.774 397.567C317.325 397.691 316.958 397.915 316.671 398.239C316.39 398.562 316.232 398.95 316.195 399.403L316.989 402.633L316.311 402.8L315.035 397.605L315.673 397.448L315.979 398.695C316.069 398.285 316.232 397.931 316.469 397.633C316.713 397.334 316.997 397.13 317.323 397.022C317.388 396.999 317.444 396.982 317.49 396.97C317.543 396.957 317.587 396.95 317.622 396.948L317.774 397.567Z" fill="white" fill-opacity="0.7"/>
<path d="M315.403 402.758C315.354 402.791 315.28 402.848 315.18 402.929C315.08 403.01 314.956 403.09 314.806 403.169C314.656 403.248 314.488 403.31 314.302 403.356C314.109 403.403 313.917 403.411 313.727 403.381C313.543 403.349 313.383 403.271 313.247 403.15C313.11 403.021 313.014 402.847 312.96 402.628L312.047 398.909L311.329 399.085L311.197 398.547L311.915 398.371L311.484 396.616L312.162 396.449L312.593 398.204L313.789 397.91L313.921 398.449L312.725 398.742L313.592 402.272C313.651 402.455 313.752 402.578 313.894 402.642C314.043 402.704 314.198 402.715 314.357 402.676C314.543 402.63 314.705 402.559 314.844 402.462C314.98 402.358 315.062 402.288 315.088 402.253L315.403 402.758Z" fill="white" fill-opacity="0.7"/>
<path d="M309.872 398.282C309.745 398.193 309.604 398.122 309.45 398.068C309.294 398.008 309.125 397.965 308.942 397.939C308.76 397.913 308.567 397.904 308.365 397.912C308.169 397.918 307.965 397.947 307.752 397.999C307.134 398.151 306.708 398.382 306.474 398.693C306.245 398.996 306.181 399.35 306.28 399.756C306.349 400.035 306.469 400.238 306.641 400.365C306.82 400.49 307.068 400.567 307.385 400.595C307.702 400.623 308.1 400.634 308.578 400.629C309.109 400.612 309.575 400.631 309.977 400.688C310.378 400.744 310.71 400.874 310.971 401.078C311.231 401.275 311.413 401.586 311.518 402.011C311.598 402.337 311.604 402.635 311.537 402.905C311.469 403.176 311.342 403.418 311.155 403.633C310.968 403.848 310.728 404.034 310.436 404.191C310.141 404.34 309.808 404.461 309.436 404.553C309.07 404.642 308.709 404.692 308.352 404.702C308 404.704 307.656 404.669 307.321 404.596C306.985 404.517 306.658 404.393 306.342 404.224L306.551 403.569C306.71 403.671 306.891 403.761 307.093 403.838C307.3 403.907 307.521 403.962 307.757 404.003C307.999 404.042 308.25 404.058 308.509 404.051C308.773 404.035 309.038 403.995 309.304 403.929C309.869 403.791 310.282 403.58 310.544 403.297C310.812 403.013 310.897 402.668 310.797 402.262C310.725 401.97 310.588 401.757 310.386 401.623C310.183 401.483 309.908 401.395 309.561 401.361C309.214 401.326 308.795 401.313 308.303 401.321C307.784 401.328 307.337 401.304 306.964 401.248C306.591 401.192 306.29 401.072 306.062 400.888C305.838 400.696 305.68 400.411 305.587 400.032C305.479 399.593 305.495 399.198 305.634 398.847C305.778 398.487 306.021 398.184 306.363 397.938C306.702 397.686 307.118 397.499 307.61 397.378C307.922 397.302 308.22 397.264 308.502 397.265C308.789 397.258 309.061 397.286 309.316 397.35C309.578 397.413 309.831 397.509 310.074 397.64L309.872 398.282Z" fill="white" fill-opacity="0.7"/>
<path d="M301.374 406.576C300.949 406.68 300.536 406.707 300.136 406.658C299.736 406.608 299.368 406.473 299.032 406.252L299.194 405.705C299.553 405.906 299.895 406.033 300.218 406.088C300.547 406.134 300.877 406.116 301.21 406.034C301.615 405.935 301.925 405.774 302.138 405.553C302.35 405.324 302.418 405.057 302.343 404.752C302.292 404.546 302.191 404.405 302.038 404.33C301.891 404.246 301.693 404.2 301.444 404.19C301.2 404.173 300.909 404.163 300.57 404.162C300.186 404.15 299.859 404.121 299.587 404.075C299.32 404.021 299.102 403.927 298.935 403.791C298.773 403.648 298.659 403.44 298.592 403.167C298.509 402.828 298.523 402.529 298.635 402.269C298.753 402 298.944 401.774 299.208 401.589C299.478 401.396 299.796 401.254 300.161 401.164C300.56 401.066 300.928 401.043 301.265 401.094C301.602 401.145 301.894 401.26 302.142 401.439L301.926 401.978C301.688 401.811 301.427 401.71 301.143 401.674C300.864 401.63 300.569 401.646 300.256 401.722C300.044 401.775 299.848 401.854 299.67 401.962C299.49 402.062 299.354 402.194 299.26 402.358C299.171 402.514 299.155 402.705 299.21 402.931C299.256 403.117 299.339 403.252 299.458 403.335C299.575 403.412 299.736 403.464 299.94 403.492C300.143 403.512 300.39 403.529 300.682 403.542C301.1 403.552 301.47 403.578 301.79 403.619C302.108 403.653 302.369 403.737 302.571 403.871C302.773 404.005 302.912 404.228 302.989 404.54C303.108 405.025 303.018 405.449 302.72 405.812C302.421 406.174 301.972 406.429 301.374 406.576Z" fill="white" fill-opacity="0.7"/>
<path d="M293.423 406.836C293.343 406.511 293.367 406.209 293.496 405.93C293.624 405.645 293.835 405.399 294.129 405.193C294.429 404.979 294.795 404.818 295.227 404.712C295.48 404.65 295.747 404.606 296.029 404.578C296.312 404.551 296.569 404.552 296.801 404.579L296.694 404.14C296.586 403.702 296.371 403.385 296.048 403.189C295.725 402.993 295.334 402.952 294.875 403.065C294.596 403.133 294.333 403.254 294.087 403.427C293.845 403.592 293.603 403.811 293.359 404.082L292.983 403.667C293.265 403.351 293.554 403.097 293.852 402.904C294.149 402.704 294.466 402.562 294.805 402.479C295.444 402.322 295.994 402.381 296.456 402.655C296.918 402.93 297.228 403.389 297.386 404.034L297.977 406.437C297.999 406.53 298.036 406.595 298.088 406.631C298.137 406.662 298.206 406.669 298.294 406.655L298.427 407.193C298.355 407.218 298.294 407.24 298.242 407.26C298.191 407.279 298.151 407.289 298.122 407.289C297.955 407.323 297.815 407.301 297.704 407.223C297.593 407.144 297.521 407.049 297.486 406.938L297.383 406.561C297.224 406.918 296.979 407.225 296.647 407.482C296.314 407.733 295.955 407.906 295.57 408.001C295.237 408.082 294.918 408.087 294.611 408.014C294.309 407.933 294.052 407.792 293.841 407.59C293.634 407.38 293.495 407.129 293.423 406.836ZM297.001 406.38C297.051 406.269 297.085 406.166 297.104 406.07C297.123 405.973 297.124 405.892 297.107 405.826L296.921 405.068C296.674 405.037 296.422 405.028 296.164 405.042C295.914 405.054 295.665 405.091 295.419 405.151C294.934 405.27 294.566 405.463 294.314 405.729C294.062 405.996 293.977 406.295 294.059 406.627C294.106 406.82 294.201 406.991 294.343 407.139C294.483 407.281 294.664 407.384 294.885 407.45C295.103 407.509 295.342 407.507 295.602 407.443C295.927 407.363 296.214 407.226 296.463 407.031C296.717 406.834 296.897 406.617 297.001 406.38Z" fill="white" fill-opacity="0.7"/>
<path d="M290.62 409.215C290.215 409.314 289.814 409.304 289.418 409.183C289.02 409.055 288.685 408.855 288.414 408.583L288.662 409.59L288.053 409.74L286.266 402.461L286.944 402.294L287.722 405.465C287.869 405.056 288.078 404.705 288.352 404.412C288.624 404.113 288.976 403.91 289.408 403.804C289.773 403.714 290.118 403.71 290.441 403.793C290.771 403.874 291.071 404.019 291.341 404.228C291.609 404.429 291.836 404.68 292.023 404.98C292.207 405.273 292.341 405.589 292.425 405.928C292.514 406.293 292.535 406.651 292.487 407.001C292.446 407.35 292.343 407.678 292.179 407.986C292.014 408.288 291.799 408.548 291.536 408.768C291.278 408.979 290.973 409.128 290.62 409.215ZM290.314 408.656C290.593 408.587 290.839 408.467 291.05 408.295C291.262 408.124 291.429 407.917 291.553 407.675C291.677 407.433 291.755 407.178 291.788 406.909C291.819 406.633 291.802 406.363 291.737 406.097C291.647 405.731 291.483 405.408 291.245 405.129C291.012 404.84 290.732 404.634 290.406 404.51C290.084 404.378 289.737 404.357 289.365 404.448C289.099 404.514 288.865 404.635 288.661 404.812C288.465 404.987 288.301 405.196 288.171 405.44C288.045 405.675 287.955 405.923 287.899 406.183L288.296 407.798C288.366 407.971 288.478 408.124 288.63 408.255C288.78 408.381 288.953 408.479 289.147 408.551C289.347 408.622 289.549 408.668 289.751 408.688C289.954 408.709 290.141 408.698 290.314 408.656Z" fill="white" fill-opacity="0.7"/>
<path d="M284.472 410.727C284.1 410.818 283.737 410.833 283.383 410.772C283.028 410.704 282.704 410.576 282.411 410.387C282.117 410.191 281.863 409.947 281.65 409.654C281.444 409.359 281.295 409.026 281.203 408.654C281.084 408.168 281.084 407.696 281.204 407.237C281.33 406.776 281.56 406.377 281.894 406.042C282.226 405.7 282.641 405.467 283.139 405.345C283.651 405.219 284.127 405.233 284.566 405.385C285.012 405.537 285.394 405.788 285.713 406.14C286.031 406.485 286.248 406.896 286.366 407.375C286.379 407.428 286.392 407.481 286.405 407.535C286.416 407.581 286.422 407.619 286.422 407.647L281.975 408.739C282.099 409.103 282.284 409.41 282.529 409.66C282.779 409.902 283.064 410.075 283.386 410.179C283.712 410.275 284.042 410.282 284.374 410.201C284.713 410.117 285.011 409.953 285.268 409.706C285.531 409.458 285.688 409.18 285.739 408.872L286.367 408.887C286.321 409.159 286.213 409.421 286.042 409.675C285.872 409.928 285.651 410.148 285.38 410.334C285.113 410.513 284.811 410.643 284.472 410.727ZM281.835 408.255L285.674 407.312C285.554 406.94 285.369 406.633 285.12 406.391C284.877 406.148 284.593 405.982 284.268 405.892C283.948 405.795 283.618 405.787 283.279 405.871C282.94 405.954 282.651 406.113 282.413 406.348C282.173 406.576 281.999 406.858 281.892 407.195C281.789 407.523 281.77 407.877 281.835 408.255Z" fill="white" fill-opacity="0.7"/>
<path d="M280.58 409.641C280.666 409.994 280.654 410.331 280.543 410.655C280.431 410.971 280.241 411.247 279.975 411.481C279.713 411.708 279.403 411.865 279.044 411.953L275.704 412.774L273.965 405.694L277.375 404.857C277.707 404.775 278.015 404.795 278.299 404.915C278.587 405.028 278.829 405.208 279.023 405.456C279.223 405.696 279.36 405.966 279.433 406.265C279.52 406.617 279.51 406.965 279.404 407.308C279.298 407.651 279.104 407.935 278.821 408.16C279.255 408.18 279.629 408.324 279.942 408.593C280.261 408.86 280.474 409.209 280.58 409.641ZM279.853 409.693C279.794 409.454 279.687 409.247 279.531 409.074C279.374 408.894 279.187 408.764 278.97 408.683C278.76 408.601 278.538 408.589 278.306 408.646L275.593 409.312L276.252 411.994L278.895 411.345C279.134 411.286 279.334 411.17 279.496 410.996C279.658 410.823 279.771 410.622 279.835 410.395C279.904 410.16 279.91 409.926 279.853 409.693ZM274.812 406.131L275.454 408.744L277.887 408.146C278.119 408.089 278.311 407.978 278.461 407.815C278.609 407.644 278.712 407.446 278.77 407.221C278.827 406.995 278.828 406.769 278.772 406.543C278.714 406.304 278.611 406.1 278.464 405.932C278.315 405.757 278.14 405.631 277.937 405.554C277.735 405.477 277.524 405.465 277.305 405.519L274.812 406.131Z" fill="white" fill-opacity="0.7"/>
<path d="M461.246 264.386C460.74 264.386 460.277 264.284 459.86 264.078C459.436 263.866 459.097 263.575 458.843 263.205C458.59 262.836 458.464 262.415 458.464 261.943C458.464 261.498 458.583 261.101 458.823 260.752C459.056 260.396 459.34 260.118 459.675 259.92H456.41V259.222H463.063C463.159 259.222 463.231 259.201 463.279 259.16C463.32 259.119 463.344 259.058 463.351 258.975H463.905C463.926 259.112 463.933 259.218 463.926 259.294C463.919 259.437 463.861 259.564 463.751 259.674C463.642 259.783 463.522 259.838 463.392 259.838H462.868C463.217 260.05 463.495 260.338 463.7 260.7C463.905 261.063 464.008 261.44 464.008 261.83C464.008 262.199 463.933 262.542 463.782 262.856C463.631 263.164 463.426 263.435 463.166 263.668C462.906 263.893 462.612 264.071 462.283 264.201C461.948 264.325 461.602 264.386 461.246 264.386ZM462.067 259.92H460.414C460.168 260.009 459.946 260.153 459.747 260.351C459.542 260.55 459.381 260.776 459.264 261.029C459.141 261.275 459.08 261.522 459.08 261.768C459.08 262.056 459.141 262.316 459.264 262.548C459.381 262.781 459.542 262.983 459.747 263.154C459.952 263.318 460.185 263.445 460.445 263.534C460.705 263.623 460.972 263.668 461.246 263.668C461.534 263.668 461.807 263.62 462.067 263.524C462.328 263.421 462.56 263.277 462.766 263.093C462.964 262.908 463.118 262.696 463.228 262.456C463.337 262.216 463.392 261.956 463.392 261.676C463.392 261.498 463.358 261.313 463.289 261.121C463.221 260.93 463.128 260.748 463.012 260.577C462.889 260.399 462.745 260.252 462.581 260.136C462.416 260.019 462.245 259.947 462.067 259.92Z" fill="white" fill-opacity="0.7"/>
<path d="M462.366 270.054C462.031 270.054 461.744 269.958 461.504 269.767C461.258 269.575 461.069 269.312 460.939 268.976C460.802 268.634 460.734 268.24 460.734 267.795C460.734 267.535 460.754 267.265 460.796 266.984C460.837 266.704 460.898 266.454 460.98 266.235H460.529C460.077 266.235 459.717 266.368 459.45 266.635C459.184 266.902 459.05 267.272 459.05 267.744C459.05 268.032 459.105 268.316 459.214 268.596C459.317 268.87 459.471 269.158 459.676 269.459L459.184 269.726C458.944 269.377 458.766 269.034 458.65 268.699C458.526 268.364 458.465 268.021 458.465 267.672C458.465 267.015 458.653 266.495 459.03 266.112C459.406 265.728 459.926 265.537 460.59 265.537H463.065C463.16 265.537 463.232 265.516 463.28 265.475C463.321 265.434 463.345 265.369 463.352 265.28H463.906C463.913 265.355 463.92 265.42 463.927 265.475C463.934 265.53 463.934 265.571 463.927 265.598C463.92 265.769 463.865 265.899 463.763 265.988C463.66 266.077 463.551 266.125 463.434 266.132L463.044 266.142C463.352 266.382 463.592 266.693 463.763 267.077C463.927 267.46 464.009 267.85 464.009 268.247C464.009 268.589 463.937 268.901 463.794 269.181C463.643 269.455 463.444 269.671 463.198 269.828C462.945 269.979 462.668 270.054 462.366 270.054ZM462.777 266.471C462.681 266.396 462.589 266.337 462.5 266.296C462.411 266.255 462.332 266.235 462.264 266.235H461.483C461.394 266.468 461.326 266.71 461.278 266.964C461.23 267.21 461.206 267.46 461.206 267.713C461.206 268.213 461.305 268.617 461.504 268.925C461.702 269.233 461.973 269.387 462.315 269.387C462.514 269.387 462.702 269.335 462.88 269.233C463.051 269.13 463.195 268.98 463.311 268.781C463.421 268.583 463.475 268.35 463.475 268.083C463.475 267.747 463.41 267.436 463.28 267.149C463.15 266.854 462.982 266.628 462.777 266.471Z" fill="white" fill-opacity="0.7"/>
<path d="M464.009 273.449C464.009 273.832 463.937 274.188 463.794 274.517C463.643 274.838 463.441 275.119 463.188 275.358C462.928 275.591 462.633 275.773 462.305 275.903C461.969 276.033 461.617 276.098 461.247 276.098C460.864 276.098 460.508 276.033 460.179 275.903C459.844 275.773 459.55 275.588 459.296 275.348C459.036 275.109 458.834 274.828 458.691 274.506C458.54 274.178 458.465 273.822 458.465 273.438C458.465 273.055 458.54 272.703 458.691 272.381C458.834 272.059 459.036 271.779 459.296 271.539C459.55 271.299 459.844 271.115 460.179 270.985C460.508 270.855 460.864 270.789 461.247 270.789C461.617 270.789 461.969 270.855 462.305 270.985C462.633 271.115 462.928 271.299 463.188 271.539C463.441 271.772 463.643 272.052 463.794 272.381C463.937 272.703 464.009 273.059 464.009 273.449ZM461.258 275.389C461.655 275.389 462.017 275.304 462.346 275.133C462.668 274.955 462.924 274.718 463.116 274.424C463.301 274.13 463.393 273.805 463.393 273.449C463.393 273.093 463.297 272.768 463.106 272.473C462.914 272.179 462.654 271.943 462.325 271.765C461.99 271.587 461.627 271.498 461.237 271.498C460.84 271.498 460.477 271.587 460.149 271.765C459.82 271.943 459.56 272.179 459.368 272.473C459.177 272.768 459.081 273.093 459.081 273.449C459.081 273.805 459.18 274.13 459.379 274.424C459.577 274.712 459.841 274.944 460.169 275.122C460.491 275.3 460.854 275.389 461.258 275.389Z" fill="white" fill-opacity="0.7"/>
<path d="M463.907 282.132H456.617V279.052C456.617 278.737 456.682 278.45 456.812 278.19C456.942 277.93 457.12 277.704 457.346 277.512C457.565 277.314 457.812 277.163 458.085 277.06C458.352 276.951 458.626 276.896 458.907 276.896C459.256 276.896 459.584 276.964 459.892 277.101C460.2 277.231 460.461 277.42 460.673 277.666C460.885 277.906 461.025 278.19 461.094 278.518L463.907 276.732V277.543L461.217 279.257V281.414H463.907V282.132ZM460.58 281.414V279.032C460.58 278.744 460.502 278.494 460.344 278.282C460.187 278.07 459.981 277.906 459.728 277.789C459.468 277.673 459.194 277.615 458.907 277.615C458.612 277.615 458.342 277.683 458.096 277.82C457.842 277.95 457.64 278.128 457.49 278.354C457.332 278.573 457.254 278.819 457.254 279.093V281.414H460.58Z" fill="white" fill-opacity="0.7"/>
<path d="M464.009 288.608C464.009 288.991 463.937 289.347 463.794 289.676C463.643 290.004 463.441 290.288 463.188 290.528C462.928 290.767 462.63 290.956 462.295 291.093C461.959 291.223 461.6 291.288 461.216 291.288C460.717 291.288 460.258 291.175 459.841 290.949C459.423 290.716 459.091 290.398 458.845 289.994C458.591 289.59 458.465 289.131 458.465 288.618C458.465 288.091 458.591 287.632 458.845 287.242C459.098 286.845 459.433 286.534 459.851 286.308C460.262 286.082 460.713 285.969 461.206 285.969C461.261 285.969 461.316 285.969 461.37 285.969C461.418 285.969 461.456 285.973 461.483 285.979V290.559C461.867 290.524 462.209 290.418 462.51 290.24C462.804 290.056 463.041 289.819 463.219 289.532C463.39 289.238 463.475 288.919 463.475 288.577C463.475 288.228 463.386 287.899 463.208 287.591C463.03 287.277 462.798 287.057 462.51 286.934L462.674 286.329C462.928 286.438 463.157 286.606 463.362 286.832C463.568 287.057 463.729 287.324 463.845 287.632C463.954 287.934 464.009 288.259 464.009 288.608ZM460.98 290.579V286.626C460.59 286.654 460.248 286.76 459.954 286.945C459.659 287.123 459.43 287.359 459.266 287.653C459.095 287.94 459.009 288.259 459.009 288.608C459.009 288.957 459.095 289.275 459.266 289.563C459.43 289.85 459.663 290.086 459.964 290.271C460.258 290.449 460.597 290.552 460.98 290.579Z" fill="white" fill-opacity="0.7"/>
<path d="M463.65 291.701C463.67 291.755 463.708 291.841 463.763 291.957C463.817 292.074 463.865 292.214 463.906 292.378C463.947 292.543 463.968 292.72 463.968 292.912C463.968 293.111 463.93 293.299 463.855 293.477C463.78 293.648 463.667 293.785 463.516 293.888C463.359 293.99 463.167 294.042 462.941 294.042H459.111V294.781H458.557V294.042H456.75V293.343H458.557V292.111H459.111V293.343H462.746C462.938 293.33 463.081 293.261 463.177 293.138C463.273 293.008 463.321 292.861 463.321 292.697C463.321 292.505 463.29 292.33 463.229 292.173C463.16 292.015 463.112 291.92 463.085 291.885L463.65 291.701Z" fill="white" fill-opacity="0.7"/>
<path d="M462.366 300.254C462.031 300.254 461.744 300.158 461.504 299.966C461.258 299.775 461.069 299.511 460.939 299.176C460.802 298.834 460.734 298.44 460.734 297.995C460.734 297.735 460.754 297.465 460.796 297.184C460.837 296.903 460.898 296.654 460.98 296.434H460.529C460.077 296.434 459.717 296.568 459.45 296.835C459.184 297.102 459.05 297.471 459.05 297.944C459.05 298.231 459.105 298.515 459.214 298.796C459.317 299.07 459.471 299.357 459.676 299.658L459.184 299.925C458.944 299.576 458.766 299.234 458.65 298.899C458.526 298.563 458.465 298.221 458.465 297.872C458.465 297.215 458.653 296.695 459.03 296.311C459.406 295.928 459.926 295.736 460.59 295.736H463.065C463.16 295.736 463.232 295.716 463.28 295.675C463.321 295.634 463.345 295.569 463.352 295.48H463.906C463.913 295.555 463.92 295.62 463.927 295.675C463.934 295.729 463.934 295.771 463.927 295.798C463.92 295.969 463.865 296.099 463.763 296.188C463.66 296.277 463.551 296.325 463.434 296.332L463.044 296.342C463.352 296.582 463.592 296.893 463.763 297.276C463.927 297.66 464.009 298.05 464.009 298.447C464.009 298.789 463.937 299.101 463.794 299.381C463.643 299.655 463.444 299.871 463.198 300.028C462.945 300.179 462.668 300.254 462.366 300.254ZM462.777 296.671C462.681 296.595 462.589 296.537 462.5 296.496C462.411 296.455 462.332 296.434 462.264 296.434H461.483C461.394 296.667 461.326 296.91 461.278 297.163C461.23 297.41 461.206 297.66 461.206 297.913C461.206 298.413 461.305 298.816 461.504 299.125C461.702 299.433 461.973 299.587 462.315 299.587C462.514 299.587 462.702 299.535 462.88 299.433C463.051 299.33 463.195 299.179 463.311 298.981C463.421 298.782 463.475 298.55 463.475 298.283C463.475 297.947 463.41 297.636 463.28 297.348C463.15 297.054 462.982 296.828 462.777 296.671Z" fill="white" fill-opacity="0.7"/>
<path d="M463.978 304.023C463.978 304.386 463.903 304.721 463.752 305.029C463.602 305.337 463.4 305.604 463.147 305.83C462.887 306.049 462.592 306.22 462.264 306.344C461.935 306.467 461.596 306.528 461.247 306.528C460.871 306.528 460.518 306.47 460.19 306.354C459.854 306.231 459.557 306.059 459.296 305.84C459.036 305.615 458.834 305.351 458.691 305.05C458.54 304.749 458.465 304.413 458.465 304.044C458.465 303.585 458.581 303.188 458.814 302.853C459.047 302.51 459.334 302.223 459.676 301.99H458.557V301.364H463.927C464.42 301.364 464.834 301.484 465.169 301.723C465.512 301.956 465.768 302.274 465.939 302.678C466.111 303.075 466.196 303.51 466.196 303.982C466.196 304.591 466.087 305.084 465.868 305.461C465.648 305.837 465.354 306.145 464.985 306.385L464.646 305.953C464.981 305.741 465.231 305.461 465.395 305.111C465.56 304.756 465.642 304.379 465.642 303.982C465.642 303.633 465.577 303.315 465.447 303.027C465.323 302.733 465.135 302.5 464.882 302.329C464.629 302.151 464.31 302.062 463.927 302.062H462.869C463.205 302.267 463.475 302.548 463.681 302.904C463.879 303.26 463.978 303.633 463.978 304.023ZM463.393 303.828C463.393 303.616 463.355 303.414 463.28 303.222C463.205 303.024 463.106 302.842 462.982 302.678C462.852 302.514 462.709 302.377 462.551 302.267C462.394 302.158 462.233 302.089 462.069 302.062H460.416C460.156 302.165 459.926 302.312 459.728 302.504C459.522 302.695 459.365 302.914 459.255 303.161C459.139 303.4 459.081 303.65 459.081 303.91C459.081 304.211 459.146 304.482 459.276 304.721C459.399 304.954 459.567 305.153 459.779 305.317C459.984 305.474 460.217 305.597 460.477 305.686C460.737 305.775 460.997 305.82 461.258 305.82C461.545 305.82 461.819 305.769 462.079 305.666C462.332 305.563 462.561 305.423 462.767 305.245C462.965 305.06 463.119 304.848 463.229 304.608C463.338 304.362 463.393 304.102 463.393 303.828Z" fill="white" fill-opacity="0.7"/>
<path d="M463.905 307.657V308.355H460.917C460.315 308.355 459.863 308.462 459.562 308.674C459.254 308.886 459.1 309.19 459.1 309.587C459.1 309.848 459.169 310.108 459.306 310.368C459.436 310.621 459.617 310.847 459.85 311.045C460.076 311.237 460.336 311.374 460.63 311.456H463.905V312.154H456.41V311.456H459.768C459.371 311.244 459.056 310.95 458.823 310.573C458.583 310.19 458.464 309.783 458.464 309.351C458.464 309.043 458.518 308.783 458.628 308.571C458.737 308.352 458.898 308.177 459.11 308.047C459.316 307.911 459.559 307.811 459.839 307.75C460.113 307.688 460.425 307.657 460.774 307.657H463.905Z" fill="white" fill-opacity="0.7"/>
<path d="M464.009 315.469C464.009 315.859 463.937 316.219 463.794 316.547C463.643 316.869 463.438 317.153 463.178 317.399C462.917 317.639 462.62 317.827 462.284 317.964C461.949 318.094 461.593 318.159 461.216 318.159C460.71 318.159 460.248 318.046 459.83 317.82C459.413 317.594 459.081 317.28 458.834 316.876C458.588 316.472 458.465 316.006 458.465 315.479C458.465 314.98 458.581 314.538 458.814 314.155C459.04 313.772 459.348 313.488 459.738 313.303L459.954 313.98C459.68 314.131 459.468 314.343 459.317 314.617C459.16 314.884 459.081 315.182 459.081 315.51C459.081 315.866 459.173 316.191 459.358 316.486C459.543 316.78 459.796 317.016 460.118 317.194C460.44 317.365 460.806 317.451 461.216 317.451C461.62 317.451 461.987 317.362 462.315 317.184C462.644 317.006 462.907 316.77 463.106 316.475C463.297 316.181 463.393 315.856 463.393 315.5C463.393 315.267 463.352 315.045 463.27 314.833C463.188 314.614 463.078 314.425 462.941 314.268C462.798 314.104 462.644 313.994 462.479 313.939L462.685 313.251C462.938 313.347 463.167 313.508 463.373 313.734C463.571 313.953 463.729 314.213 463.845 314.514C463.954 314.809 464.009 315.127 464.009 315.469Z" fill="white" fill-opacity="0.7"/>
<path d="M459.174 318.549C459.188 319.014 459.318 319.425 459.564 319.781C459.811 320.13 460.15 320.376 460.581 320.52H463.907V321.218H458.558V320.561H459.842C459.465 320.376 459.16 320.133 458.928 319.832C458.695 319.524 458.565 319.199 458.538 318.857C458.531 318.788 458.527 318.73 458.527 318.682C458.527 318.627 458.531 318.583 458.538 318.549H459.174Z" fill="white" fill-opacity="0.7"/>
<path d="M461.696 327.366H458.555V326.668H461.573C462.182 326.668 462.638 326.565 462.939 326.36C463.24 326.148 463.391 325.836 463.391 325.426C463.391 325.152 463.332 324.888 463.216 324.635C463.093 324.375 462.922 324.146 462.703 323.947C462.477 323.749 462.217 323.598 461.922 323.495H458.555V322.797H463.062C463.158 322.797 463.23 322.777 463.278 322.736C463.319 322.695 463.343 322.633 463.349 322.551H463.904C463.911 322.633 463.914 322.698 463.914 322.746C463.921 322.794 463.924 322.838 463.924 322.879C463.911 323.016 463.856 323.136 463.76 323.239C463.664 323.335 463.548 323.386 463.411 323.393L462.692 323.413C463.103 323.646 463.425 323.964 463.658 324.368C463.89 324.765 464.007 325.196 464.007 325.662C464.007 326.223 463.812 326.648 463.421 326.935C463.031 327.222 462.456 327.366 461.696 327.366Z" fill="white" fill-opacity="0.7"/>
<path d="M463.905 328.804V329.502H460.917C460.315 329.502 459.863 329.608 459.562 329.82C459.254 330.032 459.1 330.337 459.1 330.734C459.1 330.994 459.169 331.254 459.306 331.514C459.436 331.768 459.617 331.993 459.85 332.192C460.076 332.384 460.336 332.52 460.63 332.603H463.905V333.301H456.41V332.603H459.768C459.371 332.39 459.056 332.096 458.823 331.72C458.583 331.336 458.464 330.929 458.464 330.498C458.464 330.19 458.518 329.93 458.628 329.718C458.737 329.498 458.898 329.324 459.11 329.194C459.316 329.057 459.559 328.958 459.839 328.896C460.113 328.835 460.425 328.804 460.774 328.804H463.905Z" fill="white" fill-opacity="0.7"/>
<path d="M460.209 340.679C459.764 340.679 459.329 340.603 458.905 340.453C458.474 340.295 458.084 340.07 457.734 339.775C457.378 339.481 457.098 339.118 456.893 338.687C456.68 338.256 456.574 337.766 456.574 337.219C456.574 336.568 456.725 336.014 457.026 335.555C457.32 335.09 457.7 334.748 458.166 334.529L458.515 335.093C458.193 335.251 457.94 335.449 457.755 335.689C457.563 335.928 457.426 336.185 457.344 336.459C457.262 336.726 457.221 336.993 457.221 337.26C457.221 337.698 457.31 338.085 457.488 338.42C457.659 338.755 457.892 339.039 458.186 339.272C458.474 339.498 458.799 339.669 459.162 339.785C459.517 339.902 459.88 339.96 460.25 339.96C460.654 339.96 461.04 339.892 461.41 339.755C461.78 339.618 462.108 339.426 462.396 339.18C462.676 338.933 462.902 338.646 463.073 338.317C463.238 337.982 463.32 337.619 463.32 337.229C463.32 336.955 463.272 336.674 463.176 336.387C463.08 336.1 462.933 335.833 462.735 335.586C462.536 335.333 462.279 335.131 461.965 334.98L462.273 334.385C462.635 334.535 462.943 334.768 463.197 335.083C463.45 335.398 463.642 335.75 463.772 336.141C463.902 336.524 463.967 336.9 463.967 337.27C463.967 337.77 463.861 338.228 463.648 338.646C463.429 339.063 463.142 339.426 462.786 339.734C462.423 340.035 462.019 340.268 461.574 340.432C461.123 340.597 460.667 340.679 460.209 340.679Z" fill="white" fill-opacity="0.7"/>
<path d="M313.049 528.204L312.875 527.213L313.472 527.109L313.646 528.1L313.049 528.204Z" fill="white" fill-opacity="0.7"/>
<path d="M306.047 526.734C305.959 526.235 305.981 525.762 306.111 525.315C306.246 524.861 306.474 524.477 306.795 524.163C307.115 523.85 307.508 523.652 307.973 523.571C308.411 523.494 308.823 523.543 309.208 523.719C309.599 523.887 309.921 524.118 310.174 524.414L309.61 521.199L310.298 521.078L311.448 527.631C311.464 527.725 311.497 527.793 311.546 527.833C311.593 527.866 311.658 527.879 311.74 527.871L311.836 528.418C311.705 528.461 311.601 528.487 311.526 528.493C311.383 528.511 311.249 528.476 311.122 528.387C310.995 528.298 310.92 528.189 310.898 528.061L310.807 527.545C310.659 527.926 310.423 528.249 310.102 528.514C309.78 528.778 309.427 528.945 309.042 529.012C308.678 529.076 308.328 529.061 307.992 528.967C307.663 528.872 307.361 528.717 307.087 528.501C306.819 528.283 306.593 528.024 306.408 527.723C306.229 527.414 306.108 527.084 306.047 526.734ZM310.588 526.771L310.302 525.143C310.172 524.915 309.992 524.721 309.762 524.56C309.531 524.392 309.281 524.272 309.011 524.202C308.747 524.123 308.494 524.105 308.251 524.147C307.968 524.197 307.722 524.303 307.515 524.464C307.305 524.619 307.134 524.812 307.001 525.044C306.875 525.275 306.791 525.526 306.748 525.798C306.705 526.069 306.707 526.34 306.755 526.61C306.805 526.893 306.899 527.154 307.038 527.394C307.184 527.632 307.366 527.837 307.584 528.007C307.8 528.17 308.036 528.285 308.291 528.352C308.546 528.418 308.811 528.427 309.088 528.379C309.263 528.348 309.439 528.282 309.616 528.182C309.793 528.081 309.956 527.959 310.104 527.815C310.258 527.663 310.378 527.496 310.464 527.314C310.551 527.132 310.592 526.951 310.588 526.771Z" fill="white" fill-opacity="0.7"/>
<path d="M300.549 530.398L299.289 523.218L302.323 522.685C302.633 522.631 302.927 522.645 303.206 522.728C303.485 522.811 303.738 522.948 303.966 523.137C304.199 523.318 304.39 523.535 304.539 523.787C304.693 524.031 304.794 524.291 304.842 524.568C304.903 524.912 304.892 525.247 304.81 525.574C304.736 525.9 304.595 526.189 304.389 526.44C304.19 526.691 303.934 526.878 303.623 527.002L305.869 529.464L305.07 529.604L302.916 527.251L300.792 527.624L301.257 530.274L300.549 530.398ZM300.682 526.997L303.028 526.585C303.311 526.536 303.544 526.415 303.726 526.223C303.907 526.031 304.034 525.801 304.105 525.531C304.174 525.255 304.184 524.975 304.134 524.692C304.084 524.402 303.969 524.148 303.792 523.929C303.62 523.702 303.41 523.533 303.161 523.424C302.918 523.307 302.662 523.272 302.392 523.319L300.107 523.721L300.682 526.997Z" fill="white" fill-opacity="0.7"/>
<path d="M296.366 531.133L295.678 531.253L295.162 528.311C295.053 527.69 294.883 527.255 294.651 527.003C294.418 526.745 294.106 526.651 293.715 526.719C293.446 526.767 293.191 526.881 292.952 527.062C292.711 527.236 292.51 527.456 292.348 527.72C292.192 527.977 292.095 528.258 292.058 528.563L292.624 531.789L291.937 531.91L291.012 526.641L291.639 526.531L291.848 527.725C291.945 527.444 292.091 527.189 292.288 526.96C292.482 526.724 292.715 526.527 292.986 526.368C293.257 526.209 293.548 526.102 293.858 526.048C294.148 525.997 294.403 526.008 294.625 526.08C294.846 526.153 295.035 526.279 295.192 526.46C295.347 526.634 295.477 526.858 295.581 527.132C295.683 527.399 295.764 527.704 295.825 528.048L296.366 531.133Z" fill="white" fill-opacity="0.7"/>
<path d="M288.185 532.672C287.807 532.739 287.444 532.729 287.096 532.645C286.753 532.552 286.441 532.402 286.162 532.193C285.888 531.978 285.658 531.719 285.473 531.418C285.287 531.11 285.162 530.774 285.098 530.41C285.032 530.032 285.034 529.671 285.106 529.325C285.176 528.972 285.307 528.65 285.499 528.359C285.69 528.061 285.932 527.814 286.224 527.617C286.521 527.412 286.859 527.276 287.236 527.21C287.614 527.143 287.974 527.157 288.317 527.249C288.659 527.335 288.97 527.486 289.251 527.701C289.531 527.909 289.764 528.166 289.95 528.474C290.135 528.775 290.26 529.115 290.326 529.492C290.39 529.856 290.387 530.215 290.317 530.568C290.246 530.914 290.115 531.236 289.924 531.533C289.738 531.823 289.497 532.07 289.199 532.275C288.907 532.473 288.569 532.605 288.185 532.672ZM285.798 530.298C285.866 530.689 286.013 531.031 286.239 531.325C286.47 531.611 286.747 531.823 287.07 531.961C287.391 532.092 287.728 532.127 288.078 532.066C288.429 532.004 288.732 531.853 288.989 531.614C289.246 531.374 289.434 531.077 289.552 530.723C289.669 530.362 289.694 529.989 289.627 529.605C289.558 529.214 289.408 528.872 289.176 528.579C288.944 528.286 288.666 528.071 288.343 527.933C288.02 527.795 287.683 527.757 287.333 527.818C286.982 527.88 286.679 528.034 286.424 528.28C286.175 528.525 285.991 528.825 285.873 529.18C285.753 529.527 285.728 529.9 285.798 530.298Z" fill="white" fill-opacity="0.7"/>
<path d="M285.109 532.849C285.059 532.878 284.981 532.93 284.876 533.004C284.771 533.078 284.641 533.15 284.486 533.219C284.332 533.288 284.16 533.338 283.971 533.372C283.776 533.406 283.584 533.401 283.395 533.358C283.214 533.313 283.059 533.226 282.932 533.095C282.804 532.958 282.72 532.778 282.681 532.556L282.019 528.784L281.291 528.911L281.195 528.365L281.923 528.237L281.611 526.458L282.299 526.337L282.611 528.117L283.824 527.904L283.92 528.45L282.707 528.663L283.335 532.243C283.382 532.429 283.474 532.559 283.612 532.632C283.757 532.704 283.91 532.726 284.072 532.697C284.26 532.664 284.427 532.604 284.571 532.516C284.715 532.421 284.801 532.357 284.83 532.324L285.109 532.849Z" fill="white" fill-opacity="0.7"/>
<path d="M280.104 528.555L280.782 528.436L279.441 534.103L278.844 534.207L277.282 531.782L276.65 534.593L276.053 534.697L272.863 529.826L273.531 529.709L276.253 533.933L276.806 531.386L275.535 529.368L276.152 529.259L277.119 530.851L277.497 529.023L278.103 528.917L277.605 531.246L278.993 533.452L280.104 528.555Z" fill="white" fill-opacity="0.7"/>
<path d="M270.895 535.708C270.517 535.774 270.154 535.765 269.806 535.68C269.456 535.588 269.141 535.438 268.862 535.23C268.581 535.016 268.344 534.755 268.151 534.448C267.965 534.14 267.839 533.798 267.773 533.42C267.686 532.928 267.718 532.457 267.868 532.006C268.025 531.555 268.282 531.173 268.637 530.86C268.991 530.541 269.421 530.337 269.926 530.248C270.445 530.157 270.919 530.203 271.347 530.385C271.782 530.566 272.146 530.842 272.441 531.214C272.735 531.58 272.924 532.005 273.009 532.491C273.019 532.545 273.028 532.599 273.038 532.652C273.046 532.7 273.049 532.737 273.047 532.765L268.537 533.557C268.637 533.929 268.8 534.247 269.028 534.513C269.261 534.771 269.534 534.963 269.848 535.089C270.167 535.206 270.496 535.236 270.833 535.176C271.177 535.116 271.485 534.972 271.757 534.743C272.037 534.513 272.212 534.246 272.284 533.942L272.909 533.999C272.845 534.267 272.719 534.522 272.532 534.763C272.345 535.005 272.11 535.209 271.827 535.377C271.549 535.537 271.239 535.647 270.895 535.708ZM268.429 533.065L272.323 532.382C272.228 532.002 272.065 531.683 271.832 531.426C271.606 531.166 271.333 530.981 271.015 530.87C270.702 530.752 270.374 530.722 270.03 530.783C269.687 530.843 269.388 530.982 269.134 531.201C268.879 531.412 268.687 531.682 268.557 532.011C268.433 532.331 268.39 532.683 268.429 533.065Z" fill="white" fill-opacity="0.7"/>
<path d="M260.687 531.339L261.718 537.214L261.01 537.339L259.75 530.159L260.337 530.056L266.1 535.215L265.051 529.239L265.759 529.115L267.017 536.284L266.36 536.4L260.687 531.339Z" fill="white" fill-opacity="0.7"/>
<path d="M112.832 133.687L112.142 133.577L112.614 130.627C112.713 130.005 112.694 129.538 112.557 129.225C112.421 128.905 112.157 128.713 111.765 128.651C111.495 128.608 111.217 128.632 110.932 128.726C110.648 128.812 110.386 128.954 110.146 129.151C109.915 129.343 109.732 129.577 109.597 129.853L109.08 133.088L108.391 132.977L109.235 127.695L109.864 127.796L109.673 128.992C109.856 128.758 110.077 128.565 110.337 128.412C110.598 128.253 110.883 128.142 111.191 128.081C111.499 128.019 111.808 128.013 112.119 128.063C112.41 128.109 112.648 128.203 112.833 128.343C113.019 128.484 113.156 128.665 113.245 128.887C113.336 129.103 113.385 129.357 113.394 129.649C113.404 129.935 113.381 130.25 113.326 130.595L112.832 133.687Z" fill="white" fill-opacity="0.7"/>
<path d="M104.6 132.476C104.221 132.415 103.881 132.288 103.579 132.094C103.286 131.895 103.04 131.651 102.844 131.363C102.655 131.069 102.522 130.75 102.446 130.405C102.37 130.053 102.362 129.695 102.42 129.33C102.481 128.952 102.601 128.61 102.781 128.306C102.963 127.996 103.192 127.734 103.468 127.522C103.746 127.303 104.055 127.148 104.395 127.057C104.743 126.96 105.107 126.942 105.485 127.002C105.864 127.063 106.2 127.193 106.494 127.392C106.789 127.585 107.034 127.829 107.23 128.123C107.426 128.411 107.562 128.731 107.638 129.083C107.714 129.428 107.722 129.79 107.662 130.168C107.603 130.533 107.483 130.871 107.302 131.182C107.122 131.485 106.893 131.747 106.615 131.966C106.345 132.179 106.036 132.334 105.688 132.431C105.348 132.522 104.985 132.537 104.6 132.476ZM103.118 129.452C103.055 129.844 103.083 130.216 103.2 130.567C103.325 130.913 103.517 131.204 103.778 131.439C104.039 131.668 104.346 131.811 104.697 131.867C105.049 131.923 105.385 131.88 105.706 131.737C106.026 131.595 106.301 131.375 106.528 131.079C106.757 130.776 106.902 130.431 106.964 130.046C107.026 129.654 106.996 129.282 106.872 128.929C106.748 128.577 106.556 128.283 106.296 128.047C106.035 127.811 105.729 127.665 105.378 127.609C105.026 127.553 104.69 127.6 104.368 127.749C104.052 127.9 103.781 128.123 103.553 128.419C103.327 128.709 103.182 129.053 103.118 129.452Z" fill="white" fill-opacity="0.7"/>
<path d="M101.632 131.637C101.575 131.648 101.484 131.672 101.361 131.708C101.237 131.743 101.091 131.769 100.922 131.783C100.754 131.798 100.575 131.79 100.385 131.76C100.189 131.728 100.009 131.662 99.8456 131.559C99.6885 131.458 99.5711 131.325 99.4935 131.16C99.417 130.988 99.3966 130.791 99.4322 130.568L100.037 126.786L99.3069 126.669L99.3944 126.122L100.124 126.238L100.41 124.454L101.099 124.564L100.814 126.349L102.03 126.543L101.943 127.091L100.726 126.896L100.152 130.485C100.136 130.677 100.181 130.829 100.287 130.943C100.4 131.059 100.538 131.129 100.7 131.155C100.89 131.185 101.067 131.182 101.232 131.147C101.398 131.104 101.501 131.072 101.539 131.05L101.632 131.637Z" fill="white" fill-opacity="0.7"/>
<path d="M94.8963 130.893C94.5381 130.836 94.2188 130.709 93.9384 130.511C93.658 130.314 93.4263 130.072 93.2432 129.787C93.068 129.495 92.9455 129.178 92.8757 128.834C92.8059 128.49 92.7986 128.145 92.8537 127.801C92.9131 127.429 93.0262 127.09 93.193 126.784C93.3676 126.472 93.5836 126.205 93.841 125.983C94.1051 125.762 94.3972 125.604 94.7173 125.51C95.0384 125.409 95.3815 125.387 95.7465 125.445C96.1993 125.518 96.573 125.695 96.8674 125.978C97.1686 126.262 97.4071 126.591 97.5829 126.966L97.7596 125.861L98.378 125.96L97.5303 131.262C97.4525 131.749 97.2688 132.139 96.9793 132.432C96.6955 132.733 96.3407 132.937 95.9149 133.042C95.4958 133.148 95.0531 133.164 94.5868 133.089C93.9852 132.993 93.5158 132.807 93.1787 132.532C92.8415 132.256 92.5838 131.917 92.4056 131.514L92.8849 131.247C93.0415 131.612 93.2792 131.903 93.5979 132.12C93.9235 132.339 94.2823 132.479 94.6743 132.542C95.019 132.597 95.3435 132.583 95.648 132.5C95.958 132.425 96.2176 132.276 96.4265 132.053C96.6422 131.831 96.7804 131.531 96.8409 131.152L97.0078 130.108C96.7521 130.407 96.4323 130.629 96.0484 130.776C95.6656 130.916 95.2816 130.955 94.8963 130.893ZM95.1813 130.346C95.3909 130.38 95.5962 130.374 95.7973 130.33C96.0052 130.287 96.2 130.218 96.3817 130.122C96.5644 130.02 96.7223 129.899 96.8553 129.761C96.9883 129.623 97.0813 129.475 97.1343 129.317L97.3952 127.685C97.3349 127.412 97.2258 127.162 97.0679 126.936C96.911 126.703 96.7196 126.513 96.4936 126.366C96.2754 126.213 96.0379 126.116 95.781 126.075C95.4836 126.027 95.2064 126.049 94.9493 126.139C94.7 126.224 94.4775 126.359 94.2818 126.542C94.094 126.72 93.9356 126.93 93.8066 127.173C93.6777 127.416 93.5927 127.666 93.5516 127.923C93.5062 128.207 93.5137 128.485 93.574 128.758C93.6354 129.024 93.7378 129.273 93.8811 129.504C94.0323 129.729 94.2175 129.915 94.4368 130.061C94.6628 130.208 94.911 130.303 95.1813 130.346Z" fill="white" fill-opacity="0.7"/>
<path d="M91.3198 130.248L90.6304 130.138L91.1021 127.187C91.2015 126.566 91.1827 126.098 91.0456 125.785C90.9096 125.465 90.6455 125.274 90.2535 125.211C89.9832 125.168 89.7054 125.193 89.4202 125.286C89.136 125.372 88.8742 125.514 88.6347 125.712C88.403 125.903 88.22 126.137 88.0857 126.414L87.5686 129.648L86.8792 129.538L87.7237 124.256L88.3523 124.356L88.161 125.553C88.344 125.318 88.5655 125.125 88.8256 124.973C89.0868 124.813 89.3713 124.703 89.6792 124.641C89.9871 124.58 90.2966 124.574 90.6075 124.623C90.8981 124.67 91.1362 124.763 91.3216 124.904C91.5071 125.044 91.6445 125.226 91.7337 125.448C91.8241 125.663 91.8736 125.917 91.8822 126.21C91.892 126.496 91.8693 126.811 91.8142 127.156L91.3198 130.248Z" fill="white" fill-opacity="0.7"/>
<path d="M84.6722 129.184L85.5167 123.902L86.2061 124.012L85.3616 129.295L84.6722 129.184ZM85.6934 122.797L85.8555 121.783L86.5449 121.893L86.3828 122.907L85.6934 122.797Z" fill="white" fill-opacity="0.7"/>
<path d="M83.1211 121.347L83.8105 121.457L82.8185 127.662C82.7764 127.926 82.7961 128.106 82.8778 128.202C82.9594 128.298 83.0678 128.357 83.203 128.379C83.3247 128.398 83.4485 128.404 83.5745 128.396C83.7005 128.389 83.8096 128.379 83.9018 128.366L83.9343 128.943C83.7972 128.976 83.6313 128.995 83.4367 128.998C83.2488 129.003 83.0873 128.994 82.9521 128.973C82.6412 128.923 82.4057 128.792 82.2456 128.579C82.0923 128.367 82.041 128.103 82.0918 127.785L83.1211 121.347Z" fill="white" fill-opacity="0.7"/>
<path d="M81.737 123.922C81.2752 123.863 80.8492 123.926 80.4588 124.113C80.0752 124.301 79.7784 124.597 79.5684 125L79.0432 128.285L78.3538 128.175L79.1983 122.893L79.8471 122.996L79.6445 124.264C79.8864 123.921 80.1745 123.659 80.5086 123.477C80.8495 123.295 81.1911 123.218 81.5334 123.245C81.602 123.249 81.66 123.255 81.7073 123.263C81.7614 123.271 81.8048 123.282 81.8375 123.294L81.737 123.922Z" fill="white" fill-opacity="0.7"/>
<path d="M75.0307 120.261L75.6288 120.356L77.4688 128.033L76.7186 127.913L76.1457 125.513L72.9115 124.996L71.6291 127.099L70.8687 126.978L75.0307 120.261ZM76.0726 124.929L75.1918 121.139L73.1527 124.463L76.0726 124.929Z" fill="white" fill-opacity="0.7"/>
<path d="M60.3546 330.643C60.2973 330.654 60.2069 330.678 60.0833 330.714C59.9598 330.749 59.8137 330.774 59.645 330.789C59.4763 330.804 59.2973 330.796 59.108 330.766C58.912 330.734 58.7321 330.667 58.5682 330.565C58.4112 330.464 58.2938 330.33 58.2162 330.166C58.1397 329.994 58.1192 329.797 58.1549 329.573L58.7595 325.792L58.0295 325.675L58.1171 325.128L58.847 325.244L59.1323 323.46L59.8217 323.57L59.5364 325.355L60.7531 325.549L60.6655 326.097L59.4489 325.902L58.8751 329.491C58.8584 329.682 58.9033 329.835 59.0098 329.949C59.1231 330.064 59.2608 330.135 59.4231 330.161C59.6123 330.191 59.7895 330.188 59.9547 330.152C60.121 330.11 60.2232 330.077 60.2613 330.056L60.3546 330.643Z" fill="white" fill-opacity="0.7"/>
<path d="M54.1497 330.013C53.7712 329.953 53.4311 329.825 53.1294 329.632C52.8287 329.431 52.5801 329.187 52.3835 328.899C52.188 328.604 52.0492 328.28 51.9669 327.928C51.8915 327.576 51.884 327.211 51.9445 326.832C52.0234 326.339 52.2073 325.904 52.4963 325.527C52.792 325.152 53.1587 324.874 53.5964 324.695C54.0351 324.508 54.508 324.456 55.0149 324.537C55.5354 324.62 55.9682 324.817 56.3135 325.129C56.6655 325.442 56.9201 325.822 57.0772 326.27C57.2355 326.711 57.2757 327.175 57.1979 327.662C57.1892 327.716 57.1806 327.77 57.1719 327.824C57.1644 327.871 57.155 327.908 57.144 327.934L52.6222 327.211C52.5955 327.595 52.6462 327.95 52.7744 328.275C52.9104 328.595 53.1063 328.865 53.3621 329.087C53.6257 329.302 53.9265 329.437 54.2644 329.491C54.6092 329.546 54.9476 329.51 55.2799 329.383C55.6189 329.257 55.8719 329.062 56.039 328.797L56.6112 329.055C56.4631 329.288 56.2613 329.488 56.0058 329.655C55.7504 329.822 55.4614 329.939 55.1388 330.005C54.8242 330.065 54.4945 330.068 54.1497 330.013ZM52.6813 326.711L56.5846 327.335C56.6192 326.945 56.5685 326.591 56.4324 326.271C56.3032 325.952 56.1062 325.689 55.8415 325.48C55.5846 325.265 55.2839 325.131 54.9391 325.076C54.5944 325.021 54.2666 325.055 53.9557 325.178C53.6459 325.295 53.376 325.488 53.146 325.756C52.9238 326.018 52.7689 326.337 52.6813 326.711Z" fill="white" fill-opacity="0.7"/>
<path d="M48.1966 329.062C47.8181 329.001 47.478 328.874 47.1763 328.68C46.8756 328.48 46.627 328.236 46.4304 327.948C46.2349 327.653 46.096 327.329 46.0138 326.977C45.9383 326.625 45.9309 326.26 45.9914 325.881C46.0703 325.388 46.2542 324.953 46.5431 324.576C46.8389 324.201 47.2056 323.923 47.6433 323.743C48.082 323.557 48.5549 323.504 49.0618 323.586C49.5822 323.669 50.0151 323.866 50.3604 324.178C50.7124 324.491 50.967 324.871 51.1241 325.319C51.2823 325.76 51.3225 326.224 51.2447 326.711C51.2361 326.765 51.2274 326.819 51.2188 326.873C51.2112 326.92 51.2019 326.957 51.1908 326.983L46.6691 326.26C46.6423 326.644 46.6931 326.998 46.8213 327.324C46.9573 327.644 47.1532 327.914 47.409 328.135C47.6726 328.351 47.9734 328.486 48.3113 328.54C48.656 328.595 48.9945 328.559 49.3268 328.432C49.6658 328.306 49.9188 328.11 50.0858 327.846L50.6581 328.104C50.51 328.337 50.3082 328.536 50.0527 328.704C49.7972 328.871 49.5082 328.987 49.1857 329.054C48.871 329.114 48.5413 329.117 48.1966 329.062ZM46.7282 325.76L50.6315 326.384C50.6661 325.994 50.6154 325.64 50.4793 325.32C50.3501 325.001 50.1531 324.737 49.8884 324.529C49.6315 324.314 49.3307 324.18 48.986 324.124C48.6413 324.069 48.3135 324.104 48.0026 324.227C47.6928 324.344 47.4229 324.537 47.1928 324.805C46.9706 325.067 46.8158 325.386 46.7282 325.76Z" fill="white" fill-opacity="0.7"/>
<path d="M45.9284 323.802C45.4666 323.742 45.0406 323.805 44.6502 323.993C44.2666 324.181 43.9698 324.476 43.7598 324.88L43.2346 328.164L42.5452 328.054L43.3897 322.772L44.0385 322.876L43.8359 324.143C44.0778 323.801 44.3659 323.538 44.7 323.356C45.0409 323.175 45.3825 323.098 45.7248 323.125C45.7934 323.129 45.8514 323.135 45.8987 323.142C45.9528 323.151 45.9962 323.161 46.0289 323.173L45.9284 323.802Z" fill="white" fill-opacity="0.7"/>
<path d="M41.7257 327.664C41.6684 327.675 41.578 327.699 41.4544 327.735C41.3309 327.77 41.1848 327.795 41.0161 327.81C40.8474 327.825 40.6684 327.817 40.4791 327.787C40.2831 327.755 40.1032 327.688 39.9393 327.586C39.7822 327.485 39.6649 327.351 39.5873 327.187C39.5108 327.015 39.4903 326.818 39.526 326.594L40.1306 322.813L39.4006 322.696L39.4882 322.149L40.2181 322.265L40.5034 320.481L41.1928 320.591L40.9075 322.376L42.1242 322.57L42.0366 323.118L40.82 322.923L40.2462 326.512C40.2295 326.703 40.2744 326.856 40.3809 326.97C40.4942 327.085 40.6319 327.156 40.7941 327.182C40.9834 327.212 41.1606 327.209 41.3258 327.173C41.4921 327.131 41.5943 327.098 41.6324 327.077L41.7257 327.664Z" fill="white" fill-opacity="0.7"/>
<path d="M38.3664 321.386C38.2833 321.255 38.1813 321.135 38.0601 321.025C37.9401 320.909 37.801 320.804 37.6428 320.709C37.4846 320.615 37.3108 320.531 37.1213 320.459C36.9385 320.389 36.739 320.336 36.5227 320.301C35.8941 320.201 35.4117 320.249 35.0754 320.444C34.7469 320.634 34.5497 320.936 34.4838 321.348C34.4384 321.632 34.4703 321.866 34.5796 322.049C34.6956 322.234 34.8942 322.401 35.1754 322.55C35.4566 322.699 35.8183 322.864 36.2606 323.046C36.757 323.236 37.1792 323.436 37.5272 323.644C37.8751 323.852 38.13 324.1 38.2917 324.39C38.4545 324.672 38.5013 325.03 38.4321 325.462C38.3792 325.794 38.269 326.071 38.1017 326.293C37.9344 326.516 37.7229 326.69 37.4671 326.816C37.2114 326.941 36.9182 327.019 36.5876 327.049C36.258 327.073 35.904 327.054 35.5255 326.994C35.1537 326.935 34.8014 326.84 34.4686 326.711C34.1436 326.576 33.8409 326.409 33.5606 326.212C33.2813 326.008 33.0287 325.766 32.8029 325.488L33.2502 324.967C33.357 325.122 33.4885 325.275 33.6448 325.425C33.8089 325.569 33.9916 325.706 34.1927 325.835C34.4007 325.965 34.6253 326.077 34.8668 326.171C35.1161 326.26 35.3759 326.325 35.6462 326.369C36.2207 326.46 36.6836 326.427 37.0348 326.268C37.3927 326.111 37.6046 325.826 37.6705 325.413C37.7181 325.116 37.6748 324.866 37.5407 324.665C37.4076 324.456 37.1881 324.269 36.882 324.102C36.576 323.935 36.195 323.76 35.7392 323.576C35.2574 323.381 34.8555 323.185 34.5335 322.988C34.2115 322.791 33.9809 322.564 33.842 322.306C33.7108 322.042 33.676 321.718 33.7376 321.333C33.8089 320.886 33.9771 320.529 34.242 320.259C34.5147 319.984 34.8562 319.799 35.2663 319.705C35.6775 319.605 36.1332 319.594 36.6333 319.674C36.951 319.725 37.2396 319.806 37.4992 319.917C37.7666 320.022 38.0054 320.154 38.2158 320.312C38.4329 320.472 38.6283 320.659 38.8018 320.874L38.3664 321.386Z" fill="white" fill-opacity="0.7"/>
<path d="M30.5612 321.345C30.0995 321.285 29.6734 321.349 29.283 321.536C28.8994 321.724 28.6026 322.02 28.3926 322.423L27.8674 325.708L27.178 325.598L28.0225 320.316L28.6713 320.419L28.4687 321.687C28.7107 321.344 28.9987 321.082 29.3328 320.899C29.6737 320.718 30.0153 320.641 30.3576 320.668C30.4262 320.672 30.4842 320.678 30.5315 320.686C30.5856 320.694 30.629 320.705 30.6617 320.717L30.5612 321.345Z" fill="white" fill-opacity="0.7"/>
<path d="M23.4935 325.113C23.115 325.052 22.7749 324.925 22.4731 324.731C22.1725 324.531 21.9239 324.286 21.7273 323.998C21.5318 323.704 21.3929 323.38 21.3107 323.027C21.2352 322.676 21.2277 322.31 21.2882 321.932C21.3671 321.439 21.5511 321.004 21.84 320.627C22.1357 320.251 22.5024 319.974 22.9401 319.794C23.3789 319.608 23.8517 319.555 24.3587 319.636C24.8791 319.719 25.312 319.917 25.6572 320.229C26.0093 320.541 26.2639 320.922 26.421 321.37C26.5792 321.811 26.6194 322.275 26.5416 322.761C26.533 322.816 26.5243 322.87 26.5157 322.924C26.5081 322.971 26.4988 323.008 26.4877 323.034L21.9659 322.311C21.9392 322.695 21.9899 323.049 22.1181 323.375C22.2542 323.695 22.4501 323.965 22.7058 324.186C22.9695 324.402 23.2703 324.536 23.6082 324.59C23.9529 324.645 24.2914 324.609 24.6236 324.482C24.9626 324.356 25.2157 324.161 25.3827 323.897L25.955 324.155C25.8068 324.387 25.605 324.587 25.3496 324.754C25.0941 324.921 24.8051 325.038 24.4826 325.104C24.1679 325.165 23.8382 325.168 23.4935 325.113ZM22.0251 321.811L25.9284 322.435C25.963 322.045 25.9122 321.69 25.7762 321.371C25.6469 321.052 25.45 320.788 25.1852 320.579C24.9284 320.365 24.6276 320.23 24.2829 320.175C23.9382 320.12 23.6104 320.154 23.2995 320.278C22.9897 320.395 22.7197 320.587 22.4897 320.856C22.2675 321.118 22.1126 321.436 22.0251 321.811Z" fill="white" fill-opacity="0.7"/>
<path d="M19.9007 324.434L18.3768 321.414L17.0828 322.289L16.8186 323.941L16.1292 323.831L17.3125 316.43L18.0019 316.54L17.2012 321.549L20.6524 319.148L21.4128 319.269L18.908 321.083L20.651 324.554L19.9007 324.434Z" fill="white" fill-opacity="0.7"/>
<path d="M10.4231 321.359C10.4761 321.028 10.6161 320.759 10.8431 320.553C11.0713 320.34 11.3612 320.195 11.713 320.12C12.0725 320.039 12.472 320.033 12.9113 320.104C13.1681 320.145 13.4319 320.208 13.7025 320.292C13.9732 320.377 14.2101 320.478 14.4134 320.593L14.4848 320.147C14.5561 319.701 14.481 319.325 14.2596 319.019C14.0381 318.714 13.6942 318.524 13.2278 318.449C12.944 318.404 12.6548 318.413 12.3604 318.477C12.0738 318.535 11.7656 318.641 11.4358 318.797L11.25 318.268C11.6326 318.086 11.9986 317.965 12.3482 317.903C12.6988 317.834 13.0465 317.827 13.3912 317.882C14.0401 317.986 14.524 318.254 14.8431 318.686C15.1622 319.119 15.2693 319.663 15.1645 320.318L14.7738 322.762C14.7587 322.856 14.7676 322.93 14.8006 322.984C14.8347 323.031 14.8951 323.065 14.9819 323.086L14.8944 323.633C14.8189 323.628 14.7536 323.625 14.6985 323.623C14.6433 323.621 14.6028 323.615 14.5768 323.604C14.4089 323.57 14.2892 323.495 14.2175 323.38C14.1458 323.264 14.1158 323.149 14.1274 323.033L14.1789 322.646C13.8937 322.912 13.5483 323.099 13.1428 323.208C12.7384 323.31 12.3402 323.329 11.9481 323.266C11.6102 323.212 11.314 323.092 11.0596 322.906C10.813 322.714 10.6314 322.484 10.5149 322.216C10.4061 321.942 10.3756 321.656 10.4231 321.359ZM13.8966 322.33C13.9861 322.247 14.0581 322.165 14.1127 322.084C14.1673 322.003 14.2 321.928 14.2108 321.861L14.334 321.09C14.1183 320.965 13.8891 320.859 13.6466 320.772C13.4109 320.686 13.1679 320.623 12.9178 320.583C12.4244 320.504 12.01 320.538 11.6745 320.686C11.339 320.833 11.1442 321.076 11.0902 321.414C11.0589 321.61 11.0799 321.804 11.1531 321.996C11.2275 322.181 11.3535 322.346 11.5312 322.493C11.7099 322.632 11.931 322.723 12.1946 322.765C12.5258 322.818 12.8436 322.803 13.148 322.72C13.4592 322.638 13.7087 322.508 13.8966 322.33Z" fill="white" fill-opacity="0.7"/>
<path d="M9.70816 320.901C9.65088 321.26 9.50831 321.566 9.28043 321.821C9.05363 322.069 8.77181 322.249 8.43496 322.361C8.10595 322.468 7.75895 322.493 7.39397 322.434L3.99757 321.891L5.14844 314.693L8.6158 315.247C8.95375 315.301 9.2298 315.439 9.44394 315.66C9.66593 315.876 9.81844 316.136 9.90148 316.441C9.99235 316.739 10.0135 317.041 9.96485 317.345C9.90757 317.703 9.76338 318.02 9.53225 318.295C9.30113 318.57 9.01147 318.756 8.66327 318.852C9.05611 319.04 9.34434 319.318 9.52796 319.687C9.71833 320.057 9.7784 320.462 9.70816 320.901ZM9.01791 320.666C9.05682 320.423 9.0384 320.191 8.96268 319.971C8.88804 319.744 8.76635 319.552 8.59763 319.393C8.43567 319.235 8.23641 319.138 7.99984 319.1L5.24218 318.659L4.80614 321.386L7.49284 321.816C7.73617 321.855 7.9661 321.826 8.18264 321.728C8.39919 321.631 8.58112 321.491 8.72844 321.306C8.8836 321.116 8.98009 320.903 9.01791 320.666ZM5.75925 315.425L5.33457 318.081L7.80836 318.477C8.04492 318.514 8.26418 318.487 8.46612 318.395C8.66915 318.295 8.84094 318.153 8.9815 317.967C9.12207 317.782 9.21072 317.574 9.24746 317.345C9.28636 317.101 9.27079 316.873 9.20074 316.661C9.13178 316.442 9.01915 316.258 8.86287 316.108C8.70659 315.958 8.51692 315.866 8.29388 315.83L5.75925 315.425Z" fill="white" fill-opacity="0.7"/>
<path fill-rule="evenodd" clip-rule="evenodd" d="M258.556 48.6477L252.713 145.886C252.651 146.932 252.481 147.969 252.208 148.981L195.585 358.464L190.629 357.125L247.252 147.642C247.434 146.967 247.547 146.276 247.589 145.578L253.431 48.3398L258.556 48.6477Z" fill="#4C7F64"/>
<path d="M234.29 275.614C234.161 276.075 233.955 276.48 233.672 276.827C233.381 277.172 233.042 277.446 232.657 277.65C232.263 277.851 231.842 277.978 231.392 278.03C230.944 278.075 230.49 278.032 230.028 277.904C229.427 277.736 228.912 277.446 228.485 277.034C228.06 276.614 227.767 276.12 227.606 275.551C227.437 274.979 227.438 274.385 227.61 273.766C227.787 273.132 228.093 272.622 228.529 272.237C228.967 271.844 229.475 271.581 230.054 271.45C230.624 271.315 231.206 271.331 231.8 271.496C231.866 271.514 231.931 271.533 231.997 271.551C232.055 271.567 232.099 271.584 232.13 271.601L230.594 277.116C231.067 277.203 231.515 277.19 231.937 277.077C232.354 276.953 232.717 276.748 233.028 276.461C233.333 276.164 233.543 275.81 233.657 275.397C233.774 274.977 233.777 274.552 233.666 274.121C233.558 273.682 233.351 273.34 233.046 273.096L233.447 272.421C233.715 272.638 233.935 272.917 234.107 273.258C234.278 273.599 234.382 273.974 234.419 274.384C234.45 274.783 234.407 275.193 234.29 275.614ZM229.981 276.972L231.307 272.212C230.828 272.114 230.381 272.127 229.964 272.25C229.55 272.366 229.195 272.574 228.898 272.873C228.596 273.162 228.386 273.516 228.269 273.937C228.152 274.357 228.148 274.769 228.258 275.172C228.359 275.574 228.56 275.936 228.861 276.26C229.156 276.573 229.529 276.81 229.981 276.972Z" fill="white"/>
<path d="M232.818 279.217C232.824 279.29 232.841 279.405 232.868 279.564C232.895 279.722 232.905 279.907 232.9 280.119C232.894 280.33 232.859 280.552 232.795 280.782C232.728 281.021 232.62 281.235 232.469 281.425C232.321 281.605 232.139 281.732 231.924 281.805C231.7 281.876 231.452 281.874 231.18 281.798L226.568 280.514L226.32 281.404L225.653 281.218L225.9 280.328L223.724 279.722L223.959 278.881L226.135 279.487L226.548 278.003L227.215 278.189L226.802 279.673L231.179 280.892C231.414 280.94 231.61 280.905 231.767 280.789C231.926 280.665 232.033 280.504 232.088 280.306C232.152 280.075 232.174 279.855 232.153 279.644C232.123 279.432 232.097 279.3 232.076 279.25L232.818 279.217Z" fill="white"/>
<path d="M228.405 289.084C228.001 288.972 227.687 288.76 227.463 288.449C227.231 288.136 227.092 287.755 227.048 287.308C226.998 286.85 227.048 286.353 227.197 285.817C227.284 285.504 227.4 285.185 227.543 284.861C227.687 284.537 227.845 284.257 228.017 284.02L227.473 283.869C226.929 283.717 226.452 283.757 226.041 283.989C225.63 284.221 225.345 284.622 225.187 285.19C225.09 285.537 225.061 285.897 225.099 286.272C225.13 286.636 225.219 287.034 225.366 287.465L224.683 287.621C224.511 287.121 224.412 286.649 224.384 286.206C224.348 285.761 224.389 285.328 224.506 284.908C224.726 284.116 225.127 283.553 225.709 283.218C226.291 282.882 226.982 282.826 227.781 283.049L230.761 283.879C230.876 283.911 230.97 283.91 231.041 283.877C231.105 283.841 231.155 283.771 231.193 283.666L231.861 283.852C231.844 283.945 231.83 284.025 231.82 284.094C231.81 284.162 231.796 284.211 231.779 284.242C231.713 284.446 231.604 284.584 231.45 284.657C231.297 284.729 231.149 284.75 231.006 284.72L230.533 284.601C230.824 284.993 231.008 285.448 231.085 285.967C231.154 286.484 231.123 286.981 230.989 287.459C230.875 287.871 230.684 288.222 230.416 288.512C230.143 288.791 229.832 288.984 229.482 289.091C229.127 289.188 228.768 289.185 228.405 289.084ZM230.101 284.907C230.011 284.784 229.92 284.683 229.826 284.604C229.733 284.525 229.645 284.474 229.562 284.451L228.623 284.189C228.438 284.439 228.274 284.709 228.131 284.998C227.991 285.279 227.878 285.571 227.793 285.876C227.626 286.478 227.61 286.998 227.745 287.435C227.881 287.873 228.155 288.149 228.567 288.264C228.806 288.33 229.05 288.331 229.299 288.267C229.539 288.201 229.763 288.068 229.97 287.868C230.168 287.666 230.312 287.404 230.402 287.082C230.514 286.679 230.54 286.282 230.48 285.892C230.422 285.494 230.296 285.166 230.101 284.907Z" fill="white"/>
<path d="M229.081 294.164C228.959 294.601 228.756 294.98 228.472 295.3C228.187 295.621 227.854 295.874 227.473 296.062C227.087 296.238 226.675 296.345 226.238 296.384C225.801 296.422 225.372 296.382 224.952 296.265C224.499 296.139 224.094 295.951 223.737 295.7C223.375 295.44 223.073 295.134 222.834 294.783C222.596 294.423 222.441 294.038 222.369 293.627C222.289 293.214 222.311 292.785 222.435 292.34C222.589 291.788 222.862 291.349 223.255 291.023C223.65 290.689 224.092 290.439 224.582 290.274L223.235 289.898L223.445 289.144L229.911 290.945C230.504 291.11 230.963 291.394 231.286 291.794C231.621 292.189 231.823 292.659 231.893 293.203C231.966 293.738 231.924 294.29 231.765 294.859C231.561 295.592 231.264 296.149 230.874 296.529C230.484 296.909 230.026 297.181 229.501 297.346L229.237 296.713C229.712 296.57 230.107 296.315 230.422 295.95C230.739 295.577 230.964 295.151 231.098 294.673C231.215 294.252 231.243 293.847 231.183 293.458C231.133 293.062 230.985 292.719 230.737 292.428C230.492 292.128 230.138 291.914 229.677 291.786L228.403 291.431C228.738 291.791 228.97 292.22 229.098 292.717C229.217 293.212 229.212 293.695 229.081 294.164ZM228.442 293.733C228.513 293.478 228.535 293.222 228.509 292.966C228.485 292.702 228.426 292.45 228.333 292.211C228.231 291.969 228.104 291.756 227.951 291.572C227.798 291.387 227.628 291.251 227.439 291.163L225.449 290.608C225.101 290.645 224.775 290.745 224.472 290.909C224.161 291.071 223.898 291.282 223.683 291.542C223.463 291.791 223.309 292.073 223.221 292.386C223.12 292.749 223.108 293.096 223.184 293.428C223.255 293.75 223.39 294.045 223.59 294.314C223.785 294.572 224.024 294.799 224.307 294.993C224.591 295.188 224.889 295.328 225.202 295.416C225.548 295.512 225.895 295.542 226.243 295.506C226.582 295.467 226.905 295.375 227.212 295.229C227.513 295.073 227.77 294.87 227.982 294.618C228.197 294.358 228.35 294.063 228.442 293.733Z" fill="white"/>
<path d="M227.157 301.234C227.028 301.696 226.823 302.1 226.539 302.448C226.248 302.793 225.909 303.067 225.524 303.271C225.13 303.472 224.709 303.599 224.259 303.651C223.812 303.695 223.357 303.653 222.895 303.524C222.294 303.357 221.779 303.067 221.352 302.655C220.928 302.235 220.635 301.74 220.473 301.171C220.304 300.6 220.305 300.005 220.477 299.387C220.654 298.752 220.96 298.243 221.396 297.858C221.834 297.465 222.343 297.202 222.921 297.07C223.491 296.936 224.073 296.951 224.667 297.117C224.733 297.135 224.799 297.153 224.865 297.172C224.922 297.188 224.966 297.205 224.997 297.222L223.461 302.736C223.934 302.823 224.382 302.81 224.804 302.697C225.221 302.573 225.584 302.368 225.895 302.082C226.2 301.785 226.41 301.43 226.524 301.018C226.642 300.598 226.645 300.172 226.534 299.742C226.425 299.303 226.218 298.961 225.913 298.716L226.314 298.042C226.582 298.259 226.802 298.537 226.974 298.878C227.145 299.219 227.25 299.595 227.286 300.005C227.317 300.404 227.274 300.814 227.157 301.234ZM222.849 302.592L224.174 297.832C223.695 297.734 223.248 297.747 222.831 297.871C222.417 297.987 222.062 298.194 221.765 298.493C221.463 298.782 221.253 299.137 221.136 299.557C221.019 299.978 221.015 300.39 221.125 300.793C221.226 301.194 221.427 301.557 221.728 301.88C222.023 302.193 222.396 302.431 222.849 302.592Z" fill="white"/>
<path d="M216.305 304.798L216.539 303.958L224.105 306.065C224.427 306.155 224.653 306.155 224.784 306.068C224.915 305.98 225.004 305.853 225.049 305.688C225.091 305.54 225.116 305.387 225.124 305.23C225.132 305.072 225.135 304.935 225.132 304.819L225.853 304.86C225.875 305.035 225.875 305.243 225.852 305.486C225.831 305.72 225.798 305.919 225.752 306.084C225.646 306.463 225.45 306.737 225.163 306.906C224.879 307.066 224.543 307.093 224.156 306.985L216.305 304.798Z" fill="white"/>
<path d="M224.233 311.727C224.084 312.262 223.809 312.705 223.41 313.056C223.012 313.398 222.573 313.636 222.092 313.768L226.061 314.874L225.827 315.714L216.752 313.187L216.962 312.433L218.211 312.78C217.878 312.412 217.648 311.98 217.52 311.482C217.384 310.982 217.383 310.489 217.519 310.003C217.643 309.558 217.851 309.176 218.144 308.858C218.429 308.538 218.765 308.285 219.154 308.101C219.543 307.916 219.96 307.805 220.406 307.77C220.845 307.723 221.279 307.76 221.707 307.879C222.309 308.047 222.831 308.325 223.273 308.715C223.709 309.094 224.019 309.544 224.202 310.066C224.386 310.588 224.396 311.141 224.233 311.727ZM223.426 311.755C223.524 311.4 223.543 311.064 223.481 310.744C223.41 310.423 223.279 310.129 223.087 309.862C222.897 309.587 222.664 309.353 222.389 309.161C222.106 308.967 221.799 308.824 221.47 308.732C221.124 308.636 220.777 308.606 220.429 308.642C220.084 308.67 219.761 308.762 219.46 308.918C219.158 309.074 218.898 309.277 218.677 309.526C218.457 309.776 218.3 310.07 218.205 310.407C218.146 310.622 218.125 310.856 218.143 311.11C218.161 311.363 218.219 311.619 218.316 311.877C218.407 312.124 218.527 312.345 218.678 312.537C218.829 312.73 219.006 312.873 219.211 312.966L221.19 313.517C221.531 313.47 221.857 313.37 222.166 313.216C222.467 313.06 222.732 312.858 222.961 312.611C223.183 312.353 223.338 312.068 223.426 311.755Z" fill="white"/>
<path d="M222.108 319.357C221.959 319.893 221.684 320.336 221.285 320.686C220.887 321.029 220.448 321.266 219.967 321.399L223.936 322.504L223.702 323.345L214.627 320.817L214.837 320.063L216.086 320.411C215.753 320.043 215.523 319.61 215.395 319.113C215.259 318.613 215.258 318.12 215.394 317.633C215.518 317.188 215.726 316.807 216.019 316.489C216.304 316.168 216.64 315.916 217.029 315.731C217.418 315.546 217.835 315.436 218.281 315.4C218.72 315.354 219.154 315.39 219.582 315.509C220.184 315.677 220.706 315.956 221.148 316.345C221.584 316.724 221.894 317.175 222.077 317.696C222.261 318.218 222.271 318.772 222.108 319.357ZM221.301 319.385C221.399 319.031 221.418 318.694 221.356 318.375C221.285 318.053 221.154 317.759 220.962 317.492C220.772 317.217 220.539 316.984 220.264 316.792C219.981 316.597 219.674 316.454 219.345 316.362C218.999 316.266 218.652 316.236 218.304 316.272C217.959 316.301 217.636 316.393 217.335 316.549C217.033 316.705 216.773 316.907 216.552 317.157C216.332 317.406 216.175 317.7 216.08 318.038C216.021 318.252 216 318.486 216.018 318.74C216.036 318.994 216.094 319.249 216.191 319.507C216.282 319.755 216.402 319.975 216.553 320.168C216.704 320.361 216.881 320.504 217.086 320.596L219.065 321.147C219.406 321.1 219.732 321 220.041 320.846C220.342 320.69 220.607 320.489 220.836 320.242C221.058 319.984 221.213 319.698 221.301 319.385Z" fill="white"/>
<path d="M210.769 325.628L210.972 324.898L220.766 323.696L220.511 324.611L217.45 324.984L216.351 328.928L218.782 330.817L218.524 331.745L210.769 325.628ZM216.714 324.992L211.882 325.552L215.723 328.553L216.714 324.992Z" fill="white"/>
<path d="M256.633 0.927734C251.136 0.93422 245.866 3.12088 241.979 7.00805C238.092 10.8952 235.905 16.1655 235.898 21.6628C235.892 26.1551 237.359 30.5256 240.076 34.1038C240.076 34.1038 240.641 34.8483 240.733 34.9558L256.633 53.7078L272.541 34.9464C272.624 34.8465 273.191 34.1038 273.191 34.1038L273.193 34.0981C275.908 30.5215 277.375 26.1531 277.369 21.6628C277.362 16.1655 275.175 10.8952 271.288 7.00805C267.401 3.12088 262.131 0.93422 256.633 0.927734ZM256.633 29.2028C255.142 29.2028 253.684 28.7606 252.444 27.932C251.205 27.1035 250.238 25.926 249.667 24.5482C249.097 23.1704 248.947 21.6544 249.238 20.1918C249.529 18.7292 250.247 17.3857 251.302 16.3312C252.356 15.2767 253.7 14.5586 255.163 14.2676C256.625 13.9767 258.141 14.126 259.519 14.6967C260.897 15.2674 262.074 16.2338 262.903 17.4738C263.731 18.7137 264.173 20.1715 264.173 21.6628C264.171 23.6617 263.376 25.5781 261.962 26.9916C260.549 28.4051 258.632 29.2003 256.633 29.2028Z" fill="#4C7F64"/>
<g filter="url(#filter0_f_5969_3590)">
<path fill-rule="evenodd" clip-rule="evenodd" d="M259.195 48.6856L253.352 145.924C253.287 147.014 253.11 148.094 252.826 149.148L196.203 358.631L190.008 356.957L246.631 147.474C246.802 146.841 246.908 146.193 246.947 145.539L252.789 48.3008L259.195 48.6856Z" fill="#619B7D"/>
</g>
<path d="M228.9 385.776C219.251 408.91 192.674 419.841 169.54 410.192C146.407 400.542 135.476 373.966 145.125 350.832C154.775 327.698 181.351 316.767 204.485 326.417C227.619 336.066 238.55 362.643 228.9 385.776Z" fill="#619B7D" fill-opacity="0.25"/>
<path d="M218.426 381.41C211.189 398.761 191.257 406.959 173.906 399.722C156.556 392.484 148.358 372.552 155.595 355.202C162.832 337.851 182.764 329.653 200.115 336.89C217.465 344.128 225.663 364.06 218.426 381.41Z" fill="#619B7D" fill-opacity="0.6"/>
<g filter="url(#filter1_d_5969_3590)">
<path d="M194.585 354.904C194.596 353.14 192.462 352.25 191.216 353.499L167.065 377.701L167.819 379.533L182.461 379.228L192.547 389.848L194.379 389.094L194.585 354.904Z" fill="#619B7D"/>
</g>
<g filter="url(#filter2_d_5969_3590)">
<path fill-rule="evenodd" clip-rule="evenodd" d="M167.819 379.533L167.065 377.701L191.216 353.499C192.462 352.25 194.596 353.14 194.585 354.904L194.379 389.094L192.547 389.848L182.461 379.228L167.819 379.533ZM192.419 386.849L183.892 377.869C183.51 377.466 182.975 377.244 182.42 377.255L170.04 377.513L192.612 354.893L192.419 386.849Z" fill="#FAFAFA" fill-opacity="0.9" shape-rendering="crispEdges"/>
</g>
</g>
<defs>
<filter id="filter0_f_5969_3590" x="177.174" y="35.4667" width="94.8556" height="335.999" filterUnits="userSpaceOnUse" color-interpolation-filters="sRGB">
<feFlood flood-opacity="0" result="BackgroundImageFix"/>
<feBlend mode="normal" in="SourceGraphic" in2="BackgroundImageFix" result="shape"/>
<feGaussianBlur stdDeviation="6.41703" result="effect1_foregroundBlur_5969_3590"/>
</filter>
<filter id="filter1_d_5969_3590" x="159.174" y="352.916" width="43.3034" height="52.716" filterUnits="userSpaceOnUse" color-interpolation-filters="sRGB">
<feFlood flood-opacity="0" result="BackgroundImageFix"/>
<feColorMatrix in="SourceAlpha" type="matrix" values="0 0 0 0 0 0 0 0 0 0 0 0 0 0 0 0 0 0 127 0" result="hardAlpha"/>
<feOffset dy="7.89192"/>
<feGaussianBlur stdDeviation="3.94596"/>
<feComposite in2="hardAlpha" operator="out"/>
<feColorMatrix type="matrix" values="0 0 0 0 0 0 0 0 0 0 0 0 0 0 0 0 0 0 0.25 0"/>
<feBlend mode="normal" in2="BackgroundImageFix" result="effect1_dropShadow_5969_3590"/>
<feBlend mode="normal" in="SourceGraphic" in2="effect1_dropShadow_5969_3590" result="shape"/>
</filter>
<filter id="filter2_d_5969_3590" x="159.174" y="352.916" width="43.3034" height="52.716" filterUnits="userSpaceOnUse" color-interpolation-filters="sRGB">
<feFlood flood-opacity="0" result="BackgroundImageFix"/>
<feColorMatrix in="SourceAlpha" type="matrix" values="0 0 0 0 0 0 0 0 0 0 0 0 0 0 0 0 0 0 127 0" result="hardAlpha"/>
<feOffset dy="7.89192"/>
<feGaussianBlur stdDeviation="3.94596"/>
<feComposite in2="hardAlpha" operator="out"/>
<feColorMatrix type="matrix" values="0 0 0 0 0 0 0 0 0 0 0 0 0 0 0 0 0 0 0.25 0"/>
<feBlend mode="normal" in2="BackgroundImageFix" result="effect1_dropShadow_5969_3590"/>
<feBlend mode="normal" in="SourceGraphic" in2="effect1_dropShadow_5969_3590" result="shape"/>
</filter>
</defs>
</svg>
