<svg width="22" height="23" viewBox="0 0 22 23" fill="none" xmlns="http://www.w3.org/2000/svg">
<path d="M8.09722 8.29221C8.09722 7.76189 8.09722 7.49674 8.20805 7.3487C8.30463 7.2197 8.45246 7.13899 8.6132 7.12751C8.79765 7.11434 9.02069 7.25772 9.46678 7.5445L14.7119 10.9163C15.099 11.1652 15.2925 11.2896 15.3594 11.4478C15.4178 11.5861 15.4178 11.7421 15.3594 11.8803C15.2925 12.0385 15.099 12.1629 14.7119 12.4118L9.46679 15.7836C9.02069 16.0704 8.79765 16.2138 8.6132 16.2006C8.45246 16.1891 8.30463 16.1084 8.20805 15.9794C8.09722 15.8314 8.09722 15.5662 8.09722 15.0359V8.29221Z" stroke="#FAFAFA" stroke-width="1.5" stroke-linecap="round" stroke-linejoin="round"/>
<path d="M0.875 6.9974C0.875 5.13055 0.875 4.19713 1.23831 3.48409C1.55789 2.85689 2.06782 2.34695 2.69503 2.02737C3.40807 1.66406 4.34149 1.66406 6.20833 1.66406H15.5417C17.4085 1.66406 18.3419 1.66406 19.055 2.02737C19.6822 2.34695 20.1921 2.85689 20.5117 3.48409C20.875 4.19713 20.875 5.13055 20.875 6.9974V16.3307C20.875 18.1976 20.875 19.131 20.5117 19.844C20.1921 20.4712 19.6822 20.9812 19.055 21.3008C18.3419 21.6641 17.4085 21.6641 15.5417 21.6641H6.20833C4.34149 21.6641 3.40807 21.6641 2.69503 21.3008C2.06782 20.9812 1.55789 20.4712 1.23831 19.844C0.875 19.131 0.875 18.1976 0.875 16.3307V6.9974Z" stroke="#FAFAFA" stroke-width="1.5" stroke-linecap="round" stroke-linejoin="round"/>
</svg>
