<svg width="53" height="54" viewBox="0 0 53 54" fill="none" xmlns="http://www.w3.org/2000/svg">
<path d="M21.7 34.3631L14.3194 41.836C13.2899 42.8783 12.7751 43.3995 12.3327 43.4363C11.9488 43.4682 11.573 43.3139 11.3223 43.0214C11.0333 42.6844 11.0333 41.9518 11.0333 40.4868V36.743C11.0333 35.4286 9.95698 34.4776 8.65649 34.2871V34.2871C5.50898 33.826 3.03706 31.3541 2.57602 28.2066C2.5 27.6876 2.5 27.0683 2.5 25.8298V14.6831C2.5 10.6507 2.5 8.63452 3.28475 7.09435C3.97504 5.73959 5.0765 4.63813 6.43127 3.94784C7.97143 3.16309 9.98762 3.16309 14.02 3.16309H31.78C35.8124 3.16309 37.8286 3.16309 39.3687 3.94784C40.7235 4.63813 41.825 5.73959 42.5152 7.09435C43.3 8.63452 43.3 10.6507 43.3 14.6831V24.7631M43.3 51.1631L38.0766 47.5316C37.3424 47.0211 36.9752 46.7659 36.5757 46.5849C36.2211 46.4243 35.8482 46.3074 35.4654 46.2369C35.034 46.1574 34.5869 46.1574 33.6926 46.1574H29.38C26.6917 46.1574 25.3476 46.1574 24.3208 45.6342C23.4177 45.174 22.6834 44.4397 22.2232 43.5365C21.7 42.5098 21.7 41.1656 21.7 38.4774V32.4431C21.7 29.7548 21.7 28.4107 22.2232 27.3839C22.6834 26.4808 23.4177 25.7464 24.3208 25.2863C25.3476 24.7631 26.6917 24.7631 29.38 24.7631H42.82C45.5083 24.7631 46.8524 24.7631 47.8792 25.2863C48.7823 25.7464 49.5166 26.4808 49.9768 27.3839C50.5 28.4107 50.5 29.7548 50.5 32.4431V38.9574C50.5 41.1939 50.5 42.3122 50.1346 43.1943C49.6475 44.3704 48.713 45.3048 47.5369 45.792C46.6548 46.1574 45.5365 46.1574 43.3 46.1574V51.1631Z" stroke="#FAFAFA" stroke-width="4.8" stroke-linecap="round" stroke-linejoin="round"/>
</svg>
