<svg width="53" height="49" viewBox="0 0 53 49" fill="none" xmlns="http://www.w3.org/2000/svg">
<path d="M46.25 45.6631V28.1631M26.25 45.6631V20.6631M6.25 45.6631L6.25 35.6631M29.7667 8.23185L42.6878 13.0773M23.2469 9.16539L9.25057 19.6627M48.9016 11.7614C50.3661 13.2259 50.3661 15.6003 48.9016 17.0647C47.4372 18.5292 45.0628 18.5292 43.5984 17.0647C42.1339 15.6003 42.1339 13.2259 43.5984 11.7614C45.0628 10.297 47.4372 10.297 48.9016 11.7614ZM8.90165 19.2614C10.3661 20.7259 10.3661 23.1003 8.90165 24.5647C7.43719 26.0292 5.06281 26.0292 3.59835 24.5647C2.13388 23.1003 2.13388 20.7259 3.59835 19.2614C5.06281 17.797 7.43719 17.797 8.90165 19.2614ZM28.9017 4.26144C30.3661 5.7259 30.3661 8.10027 28.9017 9.56474C27.4372 11.0292 25.0628 11.0292 23.5983 9.56474C22.1339 8.10027 22.1339 5.7259 23.5983 4.26144C25.0628 2.79697 27.4372 2.79697 28.9017 4.26144Z" stroke="#FAFAFA" stroke-width="5" stroke-linecap="round" stroke-linejoin="round"/>
</svg>
