<svg width="50" height="36" viewBox="0 0 50 36" fill="none" xmlns="http://www.w3.org/2000/svg">
<path d="M40.8776 25.8807C39.6559 25.8807 38.4952 26.3592 37.6196 27.2246C36.744 28.1002 36.2553 29.2405 36.2553 30.4622C36.2553 31.684 36.7339 32.8243 37.6196 33.6999C38.5054 34.5653 39.6559 35.0438 40.8776 35.0438C43.3822 35.0438 45.4184 32.9872 45.4184 30.4622C45.4184 27.9373 43.3822 25.8807 40.8776 25.8807ZM40.8776 33.0075C39.4726 33.0075 38.2916 31.8469 38.2916 30.4622C38.2916 29.0776 39.4726 27.9169 40.8776 27.9169C42.2623 27.9169 43.3822 29.0572 43.3822 30.4622C43.3822 31.8672 42.2623 33.0075 40.8776 33.0075ZM42.0586 10.619C41.8754 10.4459 41.631 10.3543 41.3765 10.3543H36.1535C35.5936 10.3543 35.1354 10.8125 35.1354 11.3724V19.721C35.1354 20.281 35.5936 20.7392 36.1535 20.7392H44.4411C45.001 20.7392 45.4592 20.281 45.4592 19.721V14.1315C45.4592 13.8465 45.337 13.5716 45.1232 13.3781L42.0586 10.619ZM43.4229 18.7029H37.1717V12.3804H40.9794L43.4229 14.5795V18.7029ZM16.0151 25.8807C14.7933 25.8807 13.6327 26.3592 12.7571 27.2246C11.8815 28.1002 11.3928 29.2405 11.3928 30.4622C11.3928 31.684 11.8713 32.8243 12.7571 33.6999C13.6428 34.5653 14.7933 35.0438 16.0151 35.0438C18.5196 35.0438 20.5559 32.9872 20.5559 30.4622C20.5559 27.9373 18.5196 25.8807 16.0151 25.8807ZM16.0151 33.0075C14.6101 33.0075 13.429 31.8469 13.429 30.4622C13.429 29.0776 14.6101 27.9169 16.0151 27.9169C17.3997 27.9169 18.5196 29.0572 18.5196 30.4622C18.5196 31.8672 17.3997 33.0075 16.0151 33.0075ZM9.22419 27.133H7.17776V24.4248C7.17776 23.8648 6.71961 23.4066 6.15964 23.4066C5.59967 23.4066 5.14152 23.8648 5.14152 24.4248V28.1511C5.14152 28.7111 5.59967 29.1692 6.15964 29.1692H9.22419C9.78416 29.1692 10.2423 28.7111 10.2423 28.1511C10.2423 27.5911 9.78416 27.133 9.22419 27.133ZM14.3861 21.5842C14.3861 21.0242 13.9279 20.5661 13.3679 20.5661H1.01812C0.458155 20.5661 0 21.0242 0 21.5842C0 22.1442 0.458155 22.6023 1.01812 22.6023H13.3679C13.9279 22.6023 14.3861 22.1543 14.3861 21.5842ZM3.08491 17.9088L15.4347 17.98C15.9947 17.98 16.4529 17.5321 16.463 16.9721C16.4732 16.4019 16.0151 15.9438 15.4551 15.9438L3.10527 15.8725C3.09509 15.8725 3.09509 15.8725 3.09509 15.8725C2.53513 15.8725 2.07697 16.3205 2.07697 16.8805C2.06679 17.4506 2.52494 17.9088 3.08491 17.9088ZM5.16188 13.2865H17.5117C18.0717 13.2865 18.5298 12.8283 18.5298 12.2684C18.5298 11.7084 18.0717 11.2502 17.5117 11.2502H5.16188C4.60191 11.2502 4.14376 11.7084 4.14376 12.2684C4.14376 12.8283 4.60191 13.2865 5.16188 13.2865ZM49.6233 11.912L42.3335 5.87456C42.1503 5.72184 41.9263 5.6404 41.6819 5.6404H33.1093V1.97515C33.1093 1.41519 32.6512 0.957031 32.0912 0.957031H6.15964C5.59967 0.957031 5.14152 1.41519 5.14152 1.97515V9.42781C5.14152 9.98778 5.59967 10.4459 6.15964 10.4459C6.71961 10.4459 7.17776 9.98778 7.17776 9.42781V2.99328H31.0833V27.133H22.7347C22.1747 27.133 21.7166 27.5911 21.7166 28.1511C21.7166 28.7111 22.1747 29.1692 22.7347 29.1692H35.166C35.7259 29.1692 36.1841 28.7111 36.1841 28.1511C36.1841 27.5911 35.7259 27.133 35.166 27.133H33.1195V7.67664H41.3256L47.9638 13.1745L47.8925 27.1126H46.8336C46.2737 27.1126 45.8155 27.5708 45.8155 28.1307C45.8155 28.6907 46.2737 29.1488 46.8336 29.1488H48.9004C49.4604 29.1488 49.9185 28.7009 49.9185 28.1409L50 12.7062C49.9898 12.4007 49.8575 12.1055 49.6233 11.912Z" fill="#F9FFF6"/>
</svg>
